<svg width="35" height="35" viewBox="0 0 35 35" fill="none" xmlns="http://www.w3.org/2000/svg">
<path d="M17.5 0C7.83563 0 0 7.83563 0 17.5C0 27.1644 7.83563 35 17.5 35C27.1644 35 35 27.1644 35 17.5C35 7.83563 27.1644 0 17.5 0ZM28.8021 18.9583H17.5C16.6935 18.9583 16.0417 18.305 16.0417 17.5V6.19792C16.0417 5.39292 16.6935 4.73958 17.5 4.73958C18.3065 4.73958 18.9583 5.39292 18.9583 6.19792V16.0417H28.8021C29.6085 16.0417 30.2604 16.695 30.2604 17.5C30.2604 18.305 29.6085 18.9583 28.8021 18.9583Z" fill="#AB8A8A"/>
</svg>
