<svg width="40" height="48" viewBox="0 0 40 48" fill="none" xmlns="http://www.w3.org/2000/svg">
<g filter="url(#filter0_d)">
<path d="M26.1037 18.8205C26.4761 18.4966 26.902 18.1386 27.3529 17.7595C30.6791 14.9635 35.2344 11.1343 35.2344 7.10938V4.6875C35.2344 2.10281 33.1316 0 30.5469 0H9.45312C6.86844 0 4.76562 2.10281 4.76562 4.6875V7.10938C4.76562 11.1343 9.32094 14.9635 12.6471 17.7596C13.098 18.1387 13.5239 18.4966 13.8963 18.8206C14.2502 19.1285 14.4531 19.5584 14.4531 20.0001C14.4531 20.4417 14.2502 20.8716 13.8963 21.1795C13.5239 21.5034 13.098 21.8614 12.6471 22.2405C9.32094 25.0365 4.76562 28.8657 4.76562 32.8906V35.3125C4.76562 37.8972 6.86844 40 9.45312 40H30.5469C33.1316 40 35.2344 37.8972 35.2344 35.3125C35.2344 34.4495 34.5348 33.75 33.6719 33.75C32.8089 33.75 32.1094 34.4495 32.1094 35.3125C32.1094 36.1741 31.4084 36.875 30.5469 36.875H9.45312C8.59156 36.875 7.89062 36.1741 7.89062 35.3125V32.8906C7.89062 30.3212 12.1269 26.7602 14.6579 24.6325C15.1192 24.2448 15.555 23.8784 15.9474 23.537C16.9837 22.6354 17.5781 21.3462 17.5781 20C17.5781 18.6537 16.9838 17.3645 15.9475 16.4629C15.5551 16.1216 15.1193 15.7552 14.658 15.3674C12.1269 13.2398 7.89062 9.67875 7.89062 7.10938V4.6875C7.89062 3.82594 8.59156 3.125 9.45312 3.125H30.5469C31.4084 3.125 32.1094 3.82594 32.1094 4.6875V7.10938C32.1094 9.67875 27.8731 13.2398 25.3421 15.3674C24.8808 15.7552 24.445 16.1215 24.0526 16.4629C23.0162 17.3645 22.4219 18.6537 22.4219 20C22.4219 21.3463 23.0163 22.6355 24.0525 23.537C24.4615 23.8927 24.9171 24.2741 25.3995 24.678C26.9197 25.9504 28.6426 27.3926 30.0025 28.927C30.5748 29.5727 31.5623 29.6322 32.2082 29.0599C32.854 28.4876 32.9135 27.5001 32.3412 26.8542C30.8269 25.1456 28.9297 23.5577 27.4053 22.2816C26.9347 21.8877 26.4901 21.5155 26.1037 21.1794C25.7498 20.8715 25.5469 20.4416 25.5469 20C25.5469 19.5584 25.7498 19.1284 26.1037 18.8205Z" fill="#9C94AC"/>
</g>
<defs>
<filter id="filter0_d" x="-4" y="0" width="48" height="48" filterUnits="userSpaceOnUse" color-interpolation-filters="sRGB">
<feFlood flood-opacity="0" result="BackgroundImageFix"/>
<feColorMatrix in="SourceAlpha" type="matrix" values="0 0 0 0 0 0 0 0 0 0 0 0 0 0 0 0 0 0 127 0"/>
<feOffset dy="4"/>
<feGaussianBlur stdDeviation="2"/>
<feColorMatrix type="matrix" values="0 0 0 0 0 0 0 0 0 0 0 0 0 0 0 0 0 0 0.25 0"/>
<feBlend mode="normal" in2="BackgroundImageFix" result="effect1_dropShadow"/>
<feBlend mode="normal" in="SourceGraphic" in2="effect1_dropShadow" result="shape"/>
</filter>
</defs>
</svg>
