<svg width="43" height="40" viewBox="0 0 43 40" fill="none" xmlns="http://www.w3.org/2000/svg">
<path d="M20.7031 35.084C20.7031 35.947 20.0036 36.6465 19.1406 36.6465H6.25C2.80375 36.6465 0 33.8427 0 30.3965L0.000234375 20.8676C0.000234375 20.8659 0 20.8641 0 20.8623V6.25C0 2.80375 2.80375 0 6.25 0L12.1891 0.00187501C15.1513 0.00250001 17.639 2.07539 18.2782 4.84664L35.3124 4.84695C35.3127 4.84695 35.313 4.84695 35.3133 4.84695C36.5649 4.84695 37.7417 5.33438 38.627 6.21953C39.5124 7.10492 40 8.28203 40 9.53422V17.1123C40 17.9753 39.3005 18.6748 38.4375 18.6748C37.5745 18.6748 36.875 17.9753 36.875 17.1123V14.2218L8.98438 14.2221C8.12141 14.2221 7.42188 13.5226 7.42188 12.6596C7.42188 11.7966 8.12141 11.0971 8.98438 11.0971L36.875 11.0968V9.53422C36.875 9.11687 36.7125 8.72453 36.4174 8.42945C36.1223 8.13437 35.73 7.97195 35.3127 7.97203L16.875 7.97172C16.012 7.97172 15.3125 7.27219 15.3125 6.40922V6.25195C15.3125 4.52914 13.9109 3.12734 12.1882 3.12695L6.24945 3.12508C4.52688 3.12508 3.125 4.52695 3.125 6.25008V16.6363C3.125 16.6389 3.12539 16.6413 3.12539 16.6439L3.125 30.3966C3.125 32.1196 4.52688 33.5215 6.25 33.5215H19.1406C20.0036 33.5215 20.7031 34.221 20.7031 35.084Z" fill="#CBAB7B"/>
<path d="M33 20C27.4861 20 23 24.4861 23 30C23 35.5139 27.4861 40 33 40C38.5139 40 43 35.5139 43 30C43 24.4861 38.5139 20 33 20ZM33 37.037C29.1198 37.037 25.963 33.8802 25.963 30C25.963 26.1198 29.1198 22.963 33 22.963C36.8802 22.963 40.037 26.1198 40.037 30C40.037 33.8802 36.8802 37.037 33 37.037ZM37.4444 30C37.4444 30.8183 36.7812 31.4815 35.963 31.4815H34.4815V32.963C34.4815 33.7812 33.8183 34.4444 33 34.4444C32.1817 34.4444 31.5185 33.7812 31.5185 32.963V31.4815H30.037C29.2188 31.4815 28.5556 30.8183 28.5556 30C28.5556 29.1817 29.2188 28.5185 30.037 28.5185H31.5185V27.037C31.5185 26.2188 32.1817 25.5556 33 25.5556C33.8183 25.5556 34.4815 26.2188 34.4815 27.037V28.5185H35.963C36.7812 28.5185 37.4444 29.1817 37.4444 30Z" fill="#CBAB7B"/>
</svg>
