<svg width="70" height="70" viewBox="0 0 70 70" fill="none" xmlns="http://www.w3.org/2000/svg">
<path d="M56.4648 48.1417C57.975 48.1417 59.1992 46.9174 59.1992 45.4073V10.9375C59.1992 4.90656 54.2927 0 48.2617 0H21.7383C15.7073 0 10.8008 4.90656 10.8008 10.9375V59.0625C10.8008 65.0934 15.7073 70 21.7383 70H48.2617C54.2927 70 59.1992 65.0934 59.1992 59.0625C59.1992 57.5523 57.975 56.3281 56.4648 56.3281C54.9546 56.3281 53.7305 57.5523 53.7305 59.0625C53.7305 62.078 51.2772 64.5312 48.2617 64.5312H21.7383C18.7228 64.5312 16.2695 62.078 16.2695 59.0625V10.9375C16.2695 7.92203 18.7228 5.46875 21.7383 5.46875H48.2617C51.2772 5.46875 53.7305 7.92203 53.7305 10.9375V45.4073C53.7305 46.9174 54.9546 48.1417 56.4648 48.1417Z" fill="#AB8A8A"/>
<path d="M35 60.3096C36.5102 60.3096 37.7344 59.0853 37.7344 57.5752C37.7344 56.065 36.5102 54.8408 35 54.8408C33.4898 54.8408 32.2656 56.065 32.2656 57.5752C32.2656 59.0853 33.4898 60.3096 35 60.3096Z" fill="#AB8A8A"/>
<path d="M40.4688 12.4581C40.4688 10.9479 39.2446 9.72369 37.7344 9.72369H32.2656C30.7554 9.72369 29.5312 10.9479 29.5312 12.4581C29.5312 13.9683 30.7554 15.1924 32.2656 15.1924H37.7344C39.2446 15.1924 40.4688 13.9681 40.4688 12.4581Z" fill="#AB8A8A"/>
</svg>
