<svg width="40" height="52" viewBox="0 0 40 52" fill="none" xmlns="http://www.w3.org/2000/svg">
<path d="M37.8468 18.7071H22.9863L24.3373 2.28229C24.3695 1.82221 24.2518 1.36407 24.0018 0.976545C23.7517 0.589015 23.3828 0.292971 22.9503 0.132788C22.5178 -0.0273956 22.045 -0.0430887 21.6028 0.0880607C21.1607 0.21921 20.7729 0.490137 20.4977 0.86023L0.375602 29.2303C0.154346 29.552 0.0256188 29.9282 0.00344398 30.318C-0.0187309 30.7078 0.0664982 31.0962 0.249844 31.4409C0.43319 31.7855 0.70762 32.0733 1.04323 32.2728C1.37885 32.4723 1.76277 32.5758 2.15317 32.5721H17.3692L15.8049 49.3524C15.7626 49.8257 15.8795 50.2996 16.1371 50.6989C16.3947 51.0982 16.7783 51.4001 17.227 51.5566L17.938 51.6988C18.2938 51.6943 18.6429 51.6009 18.9533 51.427C19.2638 51.2532 19.5258 51.0044 19.7156 50.7034L39.6244 22.0489C39.8457 21.7272 39.9744 21.351 39.9966 20.9612C40.0187 20.5714 39.9335 20.183 39.7502 19.8383C39.5668 19.4936 39.2924 19.2059 38.9568 19.0064C38.6212 18.8069 38.2372 18.7034 37.8468 18.7071Z" fill="black"/>
</svg>
