<svg width="296" height="425" viewBox="0 0 296 425" fill="none" xmlns="http://www.w3.org/2000/svg">
<path d="M292.288 169.205C285.69 154.84 271.699 145.915 255.777 145.915H196.762L249.721 52.7665C256.156 41.8426 256.262 28.7565 249.993 17.7198C243.691 6.62431 232.312 0 219.552 0C211.561 0 203.74 2.76828 197.528 7.79579C197.215 8.04866 196.912 8.31314 196.618 8.58839L17.2245 176.787C5.32643 187.14 -0.909042 201.945 0.107404 217.468C1.86173 244.265 23.3356 264.471 50.0559 264.471H106.11L49.3669 373.429C49.3097 373.538 49.2533 373.649 49.1986 373.76C41.4841 389.421 45.9851 407.489 60.1449 417.7C66.4516 422.249 73.6306 424.487 80.754 424.486C89.6226 424.486 98.4042 421.016 105.294 414.215C105.47 414.041 105.643 413.862 105.812 413.68L234.317 274.908C240.539 268.188 240.135 257.697 233.417 251.475C226.697 245.254 216.206 245.657 209.984 252.375L81.7746 390.829C81.2407 391.328 80.691 391.633 79.5427 390.804C78.3207 389.922 78.5304 389.279 78.8753 388.565L148.148 255.549C150.824 250.409 150.623 244.244 147.617 239.289C144.611 234.334 139.236 231.309 133.441 231.309H50.0575C39.6792 231.309 33.7214 223.256 33.2008 215.302C32.9595 211.616 33.7886 206.264 39.1096 201.705C39.297 201.543 39.4818 201.378 39.6626 201.208L218.63 33.4092C218.909 33.2484 219.228 33.1622 219.552 33.1622C219.874 33.1622 220.626 33.1622 221.156 34.0957C221.687 35.0292 221.301 35.6751 221.137 35.9512C221.078 36.0498 221.02 36.1493 220.964 36.2496L153.846 154.301C150.928 159.434 150.958 165.731 153.928 170.834C156.897 175.938 162.356 179.078 168.26 179.078H255.776C259.737 179.078 261.471 181.565 262.151 183.047C262.849 184.565 263.623 187.573 260.973 190.659C255.007 197.606 255.801 208.075 262.748 214.041C269.694 220.008 280.163 219.213 286.13 212.266C296.555 200.13 298.914 183.63 292.288 169.205Z" fill="#AB8A8A"/>
</svg>
