<svg width="40" height="40" viewBox="0 0 40 40" fill="none" xmlns="http://www.w3.org/2000/svg">
<path d="M14.8438 0C23.0286 0 29.6875 6.65894 29.6875 14.8438C29.6875 18.3746 28.4476 21.6208 26.3812 24.1714L28.9972 26.7877C30.6104 26.5656 32.4078 27.5742 33.1244 27.9764C35.2161 29.1504 37.4161 30.95 38.5413 31.9183L38.5855 31.9565L38.627 31.998C39.5123 32.8833 40 34.0604 40 35.3125C40 36.5646 39.5123 37.7417 38.627 38.627C37.7417 39.5123 36.5646 40 35.3125 40C34.0604 40 32.8833 39.5123 31.998 38.627L31.9284 38.5526C30.73 37.1866 29.0671 35.166 27.9495 33.2962C27.4976 32.5397 26.326 30.5789 26.6861 28.8956L24.1718 26.3812C21.6208 28.4476 18.3746 29.6875 14.8438 29.6875C12.6807 29.6875 10.5948 29.2322 8.64349 28.334C7.8598 27.9733 7.51678 27.0453 7.8775 26.2616C8.23822 25.4776 9.16626 25.1346 9.95026 25.4953C11.4886 26.2033 13.1351 26.5625 14.8438 26.5625C21.3055 26.5625 26.5625 21.3055 26.5625 14.8438C26.5625 8.38196 21.3055 3.125 14.8438 3.125C8.38196 3.125 3.125 8.38196 3.125 14.8438C3.125 16.8796 3.65448 18.884 4.65637 20.6403C5.08392 21.3898 4.823 22.3441 4.07318 22.7716C3.32367 23.1992 2.36938 22.9382 1.94183 22.1887C0.671387 19.9612 0 17.4216 0 14.8438C0 6.65894 6.65894 0 14.8438 0V0ZM34.2383 36.4471C34.5297 36.7233 34.9094 36.875 35.3125 36.875C35.73 36.875 36.1221 36.7123 36.4172 36.4172C36.7126 36.1221 36.875 35.73 36.875 35.3125C36.875 34.9115 36.7249 34.5337 36.4514 34.2429C34.9356 32.9422 33.4161 31.8054 32.1674 31.0385C30.9268 30.2765 30.1883 30.015 29.798 29.9277C30.0266 30.7672 31.055 32.8113 34.2383 36.4471Z" fill="#6E8996"/>
</svg>
