<svg width="205" height="205" viewBox="0 0 205 205" fill="none" xmlns="http://www.w3.org/2000/svg">
<path d="M119.717 92.0898C124.139 92.0898 127.725 88.5046 127.725 84.082C127.725 79.6594 124.139 76.0742 119.717 76.0742C115.294 76.0742 111.709 79.6594 111.709 84.082C111.709 88.5046 115.294 92.0898 119.717 92.0898Z" fill="#CADDD8" fill-opacity="0.5"/>
<path d="M119.717 126.924C124.139 126.924 127.725 123.339 127.725 118.916C127.725 114.493 124.139 110.908 119.717 110.908C115.294 110.908 111.709 114.493 111.709 118.916C111.709 123.339 115.294 126.924 119.717 126.924Z" fill="#CADDD8" fill-opacity="0.5"/>
<path d="M154.551 92.0898C158.973 92.0898 162.559 88.5046 162.559 84.082C162.559 79.6594 158.973 76.0742 154.551 76.0742C150.128 76.0742 146.543 79.6594 146.543 84.082C146.543 88.5046 150.128 92.0898 154.551 92.0898Z" fill="#CADDD8" fill-opacity="0.5"/>
<path d="M196.992 100.097C201.415 100.097 205 96.5124 205 92.0897V48.0468C205 30.3848 190.63 16.0156 172.968 16.0156H162.558V8.0078C162.558 3.58509 158.973 0 154.55 0C150.128 0 146.543 3.58509 146.543 8.0078V16.0156H110.107V8.0078C110.107 3.58509 106.522 0 102.099 0C97.6767 0 94.0916 3.58509 94.0916 8.0078V16.0156H58.0565V8.0078C58.0565 3.58509 54.4714 0 50.0487 0C45.626 0 42.0409 3.58509 42.0409 8.0078V16.0156H32.0312C14.3692 16.0156 0 30.3848 0 48.0468V172.968C0 190.63 14.3692 205 32.0312 205H132.929C133.202 205 133.472 204.986 133.737 204.959C134.001 204.985 134.265 205 134.529 205C136.664 205 138.76 204.145 140.299 202.546L202.76 137.683C204.988 135.37 205.618 131.949 204.361 128.994C203.104 126.04 200.203 124.121 196.992 124.121H158.554C140.892 124.121 126.523 138.49 126.523 156.152V188.984H32.0312C23.2002 188.984 16.0156 181.799 16.0156 172.968V48.0468C16.0156 39.2158 23.2002 32.0312 32.0312 32.0312H42.0409V40.039C42.0409 44.4617 45.626 48.0468 50.0487 48.0468C54.4714 48.0468 58.0565 44.4617 58.0565 40.039V32.0312H94.0916V40.039C94.0916 44.4617 97.6767 48.0468 102.099 48.0468C106.522 48.0468 110.107 44.4617 110.107 40.039V32.0312H146.543V40.039C146.543 44.4617 150.128 48.0468 154.55 48.0468C158.973 48.0468 162.558 44.4617 162.558 40.039V32.0312H172.968C181.799 32.0312 188.984 39.2158 188.984 48.0468V92.0897C188.984 96.5124 192.569 100.097 196.992 100.097ZM142.539 156.152C142.539 147.321 149.723 140.136 158.554 140.136H178.163L142.539 177.132V156.152Z" fill="#CADDD8" fill-opacity="0.5"/>
<path d="M50.0488 92.0898C54.4714 92.0898 58.0566 88.5046 58.0566 84.082C58.0566 79.6594 54.4714 76.0742 50.0488 76.0742C45.6262 76.0742 42.041 79.6594 42.041 84.082C42.041 88.5046 45.6262 92.0898 50.0488 92.0898Z" fill="#CADDD8" fill-opacity="0.5"/>
<path d="M84.8828 126.924C89.3054 126.924 92.8906 123.339 92.8906 118.916C92.8906 114.493 89.3054 110.908 84.8828 110.908C80.4602 110.908 76.875 114.493 76.875 118.916C76.875 123.339 80.4602 126.924 84.8828 126.924Z" fill="#CADDD8" fill-opacity="0.5"/>
<path d="M50.0488 161.758C54.4714 161.758 58.0566 158.173 58.0566 153.75C58.0566 149.327 54.4714 145.742 50.0488 145.742C45.6262 145.742 42.041 149.327 42.041 153.75C42.041 158.173 45.6262 161.758 50.0488 161.758Z" fill="#CADDD8" fill-opacity="0.5"/>
<path d="M50.0488 126.924C54.4714 126.924 58.0566 123.339 58.0566 118.916C58.0566 114.493 54.4714 110.908 50.0488 110.908C45.6262 110.908 42.041 114.493 42.041 118.916C42.041 123.339 45.6262 126.924 50.0488 126.924Z" fill="#CADDD8" fill-opacity="0.5"/>
<path d="M84.8828 161.758C89.3054 161.758 92.8906 158.173 92.8906 153.75C92.8906 149.327 89.3054 145.742 84.8828 145.742C80.4602 145.742 76.875 149.327 76.875 153.75C76.875 158.173 80.4602 161.758 84.8828 161.758Z" fill="#CADDD8" fill-opacity="0.5"/>
<path d="M84.8828 92.0898C89.3054 92.0898 92.8906 88.5046 92.8906 84.082C92.8906 79.6594 89.3054 76.0742 84.8828 76.0742C80.4602 76.0742 76.875 79.6594 76.875 84.082C76.875 88.5046 80.4602 92.0898 84.8828 92.0898Z" fill="#CADDD8" fill-opacity="0.5"/>
</svg>
