<svg width="40" height="40" viewBox="0 0 40 40" fill="none" xmlns="http://www.w3.org/2000/svg">
<g clip-path="url(#clip0)">
<path d="M20.8337 26.6665C20.202 26.6665 19.6253 26.3099 19.342 25.7449L16.4703 19.9999H13.3337C12.4137 19.9999 11.667 19.2532 11.667 18.3332C11.667 17.4132 12.4137 16.6665 13.3337 16.6665H17.5003C18.132 16.6665 18.7087 17.0232 18.992 17.5882L20.8337 21.2732L26.0087 10.9215C26.2753 10.3899 26.8037 10.0399 27.397 10.0032C27.9903 9.96487 28.5587 10.2482 28.887 10.7415L35.0587 19.9999H38.3337C39.2537 19.9999 40.0003 20.7465 40.0003 21.6665C40.0003 22.5865 39.2537 23.3332 38.3337 23.3332H34.167C33.6103 23.3332 33.0903 23.0549 32.7803 22.5915L27.707 14.9815L22.3253 25.7465C22.042 26.3099 21.4653 26.6665 20.8337 26.6665Z" fill="#77898B"/>
<path d="M30.0067 24.4401L28.12 21.6084L25.3067 27.2351C24.4533 28.9417 22.74 30.0001 20.8333 30.0001C18.9267 30.0001 17.2133 28.9417 16.36 27.2367L14.41 23.3334H13.3333C10.5767 23.3334 8.33333 21.0901 8.33333 18.3334C8.33333 15.5767 10.5767 13.3334 13.3333 13.3334H17.5C18.635 13.3334 19.7 13.7084 20.5567 14.3717L23.0267 9.43175C23.8233 7.84175 25.4183 6.78675 27.1917 6.67841C28.9433 6.55175 30.6733 7.41175 31.6617 8.89842L36.2767 15.8217C36.525 14.5617 36.6667 13.2567 36.6667 11.9001C36.6667 6.25675 32.0683 1.66675 26.4167 1.66675C23.1617 1.66675 20.2217 3.07841 18.3333 5.45341C16.445 3.07841 13.505 1.66675 10.25 1.66675C4.59833 1.66675 0 6.25675 0 11.9001C0 27.0667 17.0283 36.1451 17.7533 36.5234C17.935 36.6201 18.135 36.6667 18.3333 36.6667C18.5317 36.6667 18.7317 36.6201 18.9133 36.5251C19.375 36.2834 26.45 32.5067 31.5267 25.8801C30.9367 25.5084 30.405 25.0384 30.0067 24.4401Z" fill="#77898B"/>
</g>
<defs>
<clipPath id="clip0">
<rect width="40" height="40" fill="white"/>
</clipPath>
</defs>
</svg>
