<svg width="25" height="43" viewBox="0 0 25 43" fill="none" xmlns="http://www.w3.org/2000/svg">
<path d="M11.2032 7.46881H0V31.12H25V24.896V7.46881H11.2032Z" fill="#232323"/>
<path d="M24.896 4.9792V4.07365C24.896 1.82745 23.0686 0 20.8224 0H4.07365C1.82745 0 0 1.82745 0 4.07365V4.9792H24.896Z" fill="#232323"/>
<path d="M0 33.6096V38.2496C0 40.4958 1.82745 42.3232 4.07365 42.3232H20.9263C23.1726 42.3232 25 40.4958 25 38.2496V33.6096H0ZM14.9375 37.759C14.9375 38.4464 14.3802 39.0038 13.6927 39.0038H11.2037C10.5162 39.0038 9.95891 38.4464 9.95891 37.759C9.95891 37.0715 10.5162 36.5142 11.2037 36.5142H13.6927C14.3802 36.5142 14.9375 37.0715 14.9375 37.759Z" fill="#232323"/>
</svg>
