<svg width="296" height="296" viewBox="0 0 296 296" fill="none" xmlns="http://www.w3.org/2000/svg">
<path d="M148 261.891C141.614 261.891 136.438 256.715 136.438 250.328C136.438 243.942 141.614 238.766 148 238.766C154.386 238.766 159.562 243.942 159.562 250.328C159.562 256.715 154.386 261.891 148 261.891ZM234.141 168.812C240.527 168.812 245.703 163.636 245.703 157.25V46.25C245.703 20.747 224.956 0 199.453 0H96.5469C71.0439 0 50.2969 20.747 50.2969 46.25V249.75C50.2969 275.253 71.0439 296 96.5469 296H199.453C224.956 296 245.703 275.253 245.703 249.75V215.062C245.703 208.676 240.527 203.5 234.141 203.5H108.109C101.723 203.5 96.5469 208.676 96.5469 215.062C96.5469 221.449 101.723 226.625 108.109 226.625H222.578V249.75C222.578 262.5 212.203 272.875 199.453 272.875H96.5469C83.7965 272.875 73.4219 262.5 73.4219 249.75V46.25C73.4219 33.4996 83.7965 23.125 96.5469 23.125H199.453C212.203 23.125 222.578 33.4996 222.578 46.25V157.25C222.578 163.636 227.754 168.812 234.141 168.812Z" fill="#77898B"/>
</svg>
