<svg width="40" height="40" viewBox="0 0 40 40" fill="none" xmlns="http://www.w3.org/2000/svg">
<path d="M10.4721 39.0649C10.1495 39.0649 9.82361 39.0021 9.51263 38.8733C8.57483 38.4848 7.96875 37.5778 7.96875 36.5628V33.9062C7.96875 32.9584 7.19788 32.1875 6.25 32.1875C2.80365 32.1875 0 29.3839 0 25.9375V7.1875C0 3.74115 2.80365 0.9375 6.25 0.9375H33.75C37.1964 0.9375 40 3.74115 40 7.1875V18.125C40 18.988 39.3005 19.6875 38.4375 19.6875C37.5745 19.6875 36.875 18.988 36.875 18.125V7.1875C36.875 5.46448 35.473 4.0625 33.75 4.0625H6.25C4.52698 4.0625 3.125 5.46448 3.125 7.1875V25.9375C3.125 27.6605 4.52698 29.0625 6.25 29.0625C8.9209 29.0625 11.0938 31.2354 11.0938 33.9062V35.0558L14.4962 31.6534C16.167 29.9826 18.3884 29.0625 20.7513 29.0625H33.75C35.473 29.0625 36.875 27.6605 36.875 25.9375C36.875 25.0745 37.5745 24.375 38.4375 24.375C39.3005 24.375 40 25.0745 40 25.9375C40 29.3839 37.1964 32.1875 33.75 32.1875H20.7513C19.223 32.1875 17.7866 32.7826 16.7059 33.8632L12.2379 38.3313C11.7584 38.8107 11.1215 39.0649 10.4721 39.0649ZM32.1875 10.3125C32.1875 9.44946 31.488 8.75 30.625 8.75H9.375C8.51196 8.75 7.8125 9.44946 7.8125 10.3125C7.8125 11.1755 8.51196 11.875 9.375 11.875H30.625C31.488 11.875 32.1875 11.1755 32.1875 10.3125ZM32.1875 16.5625C32.1875 15.6995 31.488 15 30.625 15H9.375C8.51196 15 7.8125 15.6995 7.8125 16.5625C7.8125 17.4255 8.51196 18.125 9.375 18.125H30.625C31.488 18.125 32.1875 17.4255 32.1875 16.5625ZM25.9375 22.8125C25.9375 21.9495 25.238 21.25 24.375 21.25H9.375C8.51196 21.25 7.8125 21.9495 7.8125 22.8125C7.8125 23.6755 8.51196 24.375 9.375 24.375H24.375C25.238 24.375 25.9375 23.6755 25.9375 22.8125Z" fill="#9C94AC"/>
</svg>
