<svg width="176" height="176" viewBox="0 0 176 176" fill="none" xmlns="http://www.w3.org/2000/svg">
<path d="M46.0773 171.886C44.658 171.886 43.2239 171.609 41.8556 171.042C37.7292 169.333 35.0625 165.342 35.0625 160.876V149.188C35.0625 145.017 31.6707 141.625 27.5 141.625C12.3361 141.625 0 129.289 0 114.125V31.625C0 16.4611 12.3361 4.125 27.5 4.125H148.5C163.664 4.125 176 16.4611 176 31.625V79.75C176 83.5474 172.922 86.625 169.125 86.625C165.328 86.625 162.25 83.5474 162.25 79.75V31.625C162.25 24.0437 156.081 17.875 148.5 17.875H27.5C19.9187 17.875 13.75 24.0437 13.75 31.625V114.125C13.75 121.706 19.9187 127.875 27.5 127.875C39.252 127.875 48.8125 137.436 48.8125 149.188V154.246L63.7831 139.275C71.1348 131.923 80.9088 127.875 91.3059 127.875H148.5C156.081 127.875 162.25 121.706 162.25 114.125C162.25 110.328 165.328 107.25 169.125 107.25C172.922 107.25 176 110.328 176 114.125C176 129.289 163.664 141.625 148.5 141.625H91.3059C84.5813 141.625 78.2609 144.243 73.5061 148.998L53.8466 168.658C51.7371 170.767 48.9347 171.886 46.0773 171.886ZM141.625 45.375C141.625 41.5776 138.547 38.5 134.75 38.5H41.25C37.4526 38.5 34.375 41.5776 34.375 45.375C34.375 49.1724 37.4526 52.25 41.25 52.25H134.75C138.547 52.25 141.625 49.1724 141.625 45.375ZM141.625 72.875C141.625 69.0776 138.547 66 134.75 66H41.25C37.4526 66 34.375 69.0776 34.375 72.875C34.375 76.6724 37.4526 79.75 41.25 79.75H134.75C138.547 79.75 141.625 76.6724 141.625 72.875ZM114.125 100.375C114.125 96.5776 111.047 93.5 107.25 93.5H41.25C37.4526 93.5 34.375 96.5776 34.375 100.375C34.375 104.172 37.4526 107.25 41.25 107.25H107.25C111.047 107.25 114.125 104.172 114.125 100.375Z" fill="#D5CFE1" fill-opacity="0.4"/>
</svg>
