<svg width="512" height="513" viewBox="0 0 512 513" fill="none" xmlns="http://www.w3.org/2000/svg">
<path d="M501.138 176.53C500.478 174.232 499.391 172.015 497.863 169.994C496.731 168.498 495.43 167.206 494.007 166.125C490.159 161.359 485.752 157.019 480.846 153.225L299.863 13.3112C299.326 12.8952 298.768 12.5083 298.192 12.1493C272.139 -4.04975 239.77 -4.04975 213.718 12.1493C213.142 12.5073 212.584 12.8952 212.047 13.3112L31.065 153.225C11.613 168.263 0 191.919 0 216.506V432.015C0.001 476.119 35.882 512 79.987 512H325.944C336.988 512 345.941 503.048 345.941 492.003C345.941 480.958 336.989 472.006 325.944 472.006H79.987C57.935 472.006 39.994 454.065 39.994 432.013V216.506C39.994 204.213 45.801 192.385 55.526 184.865L235.623 45.6352C248.247 38.1702 263.665 38.1702 276.289 45.6352L450.785 180.534L276.37 312.479C263.691 320.016 248.176 320.008 235.502 312.456L116.966 223.705C108.126 217.085 95.593 218.887 88.974 227.727C82.355 236.567 84.156 249.099 92.996 255.719L212.291 345.037C212.752 345.382 213.228 345.707 213.716 346.012C226.743 354.113 241.348 358.162 255.954 358.162C270.559 358.162 285.165 354.112 298.192 346.012C298.709 345.69 299.211 345.345 299.697 344.978L471.876 214.725C471.903 215.317 471.917 215.91 471.917 216.505V258.044C471.917 269.088 480.869 278.041 491.914 278.041C502.959 278.041 511.91 269.089 511.91 258.044V216.505C511.911 202.388 508.081 188.578 501.138 176.53Z" fill="#77898B"/>
<path d="M506.043 383.182L446.996 324.242C435.379 312.625 416.474 312.625 404.867 324.23L345.81 383.182C337.994 390.985 337.982 403.645 345.785 411.461C353.588 419.278 366.248 419.289 374.064 411.486L405.929 379.678V492.004C405.929 503.048 414.881 512.001 425.926 512.001C436.971 512.001 445.923 503.049 445.923 492.004V379.678L477.788 411.486C481.691 415.382 486.803 417.33 491.915 417.33C497.038 417.33 502.162 415.372 506.068 411.46C513.87 403.645 513.858 390.984 506.043 383.182Z" fill="#77898B"/>
</svg>
