<svg width="296" height="264" viewBox="0 0 296 264" fill="none" xmlns="http://www.w3.org/2000/svg">
<path d="M208.174 200.494C203.639 195.997 196.319 196.027 191.822 200.561L158.984 233.669V120.25C158.984 113.864 153.808 108.688 147.422 108.688C141.036 108.688 135.859 113.864 135.859 120.25V232.503L104.178 200.561C99.6815 196.028 92.3607 195.997 87.8265 200.494C83.2928 204.99 83.2622 212.311 87.7594 216.845L123.403 252.783C129.968 259.402 138.703 263.047 148 263.047C157.297 263.047 166.032 259.402 172.598 252.783L208.241 216.845C212.737 212.311 212.707 204.99 208.174 200.494Z" fill="#C4AD8C"/>
<path d="M267.094 86.5141V78.8112C267.094 35.3547 231.739 0 188.283 0C169.359 0 151.062 6.808 136.763 19.1706C127.303 27.3488 119.983 37.6018 115.319 48.9967C108.149 45.3325 100.141 43.3594 91.9219 43.3594C63.5504 43.3594 40.4688 66.441 40.4688 94.8125V105.327C17.331 110.516 0 131.049 0 155.516C0 169.259 5.20255 182.148 14.6497 191.807C24.2125 201.585 37.0775 206.969 50.875 206.969H54.9219C61.3078 206.969 66.4844 201.792 66.4844 195.406C66.4844 189.02 61.3078 183.844 54.9219 183.844H50.875C35.3142 183.844 23.125 171.401 23.125 155.516C23.125 139.895 36.0525 127.188 51.9422 127.188H52.0312C58.4172 127.188 63.5938 122.011 63.5938 115.625V94.8125C63.5938 79.1921 76.3015 66.4844 91.9219 66.4844C100.036 66.4844 107.778 69.9832 113.163 76.0836C116.131 79.4459 120.776 80.7883 125.079 79.5286C129.383 78.2689 132.57 74.6342 133.257 70.2023C137.416 43.364 161.071 23.125 188.282 23.125C218.988 23.125 243.969 48.1058 243.969 78.8112V93.0319C243.969 97.31 246.332 101.239 250.111 103.245C264.152 110.698 272.875 125.188 272.875 141.062C272.875 161.158 259.217 178.31 239.662 182.772C233.436 184.193 229.541 190.392 230.962 196.617C232.383 202.843 238.582 206.74 244.806 205.318C259.128 202.049 272.122 193.924 281.395 182.438C290.813 170.774 296 156.08 296 141.062C296 119.017 285.084 98.7073 267.094 86.5141Z" fill="#C4AD8C"/>
</svg>
