<svg width="40" height="42" viewBox="0 0 40 42" fill="none" xmlns="http://www.w3.org/2000/svg">
<path d="M0 38.4861C0 38.8902 0.0795867 39.2903 0.234217 39.6636C0.388846 40.0369 0.615491 40.3761 0.90121 40.6618C1.18693 40.9475 1.52613 41.1742 1.89944 41.3288C2.27274 41.4834 2.67286 41.563 3.07692 41.563H36.9231C37.7391 41.563 38.5218 41.2389 39.0988 40.6618C39.6758 40.0848 40 39.3022 40 38.4861C40 37.6701 39.6758 36.8874 39.0988 36.3104C38.5218 35.7334 37.7391 35.4092 36.9231 35.4092H3.07692C2.26087 35.4092 1.47825 35.7334 0.90121 36.3104C0.324175 36.8874 0 37.6701 0 38.4861Z" fill="black"/>
<path d="M19.2857 0C18.4696 0 17.687 0.324175 17.11 0.90121C16.5329 1.47824 16.2088 2.26087 16.2088 3.07692V21.3969L8.52262 13.2923C7.96199 12.699 7.18865 12.3528 6.37272 12.3297C5.5568 12.3066 4.76512 12.6086 4.17185 13.1692C3.57858 13.7299 3.23232 14.5032 3.20924 15.3191C3.19781 15.7231 3.26607 16.1254 3.41012 16.5031C3.55416 16.8807 3.77118 17.2262 4.04877 17.52L17.0518 31.2431C17.3394 31.5476 17.6862 31.7902 18.0708 31.956C18.4555 32.1217 18.8699 32.2073 19.2888 32.2073C19.7076 32.2073 20.1221 32.1217 20.5067 31.956C20.8914 31.7902 21.2381 31.5476 21.5257 31.2431L34.5165 17.52C34.7941 17.2262 35.0111 16.8807 35.1551 16.5031C35.2992 16.1254 35.3674 15.7231 35.356 15.3191C35.3446 14.9151 35.2537 14.5173 35.0885 14.1484C34.9233 13.7796 34.6871 13.4468 34.3934 13.1692C34.0996 12.8916 33.7541 12.6746 33.3764 12.5306C32.9988 12.3865 32.5965 12.3183 32.1925 12.3297C31.7885 12.3411 31.3907 12.432 31.0218 12.5972C30.6529 12.7623 30.3202 12.9986 30.0426 13.2923L22.3626 21.3969V3.07692C22.3626 2.26087 22.0384 1.47824 21.4614 0.90121C20.8844 0.324175 20.1017 0 19.2857 0Z" fill="black"/>
</svg>
