<svg width="24" height="39" viewBox="0 0 24 39" fill="none" xmlns="http://www.w3.org/2000/svg">
<path d="M0 32.2783V34.5188C0 36.9269 1.95904 38.8859 4.36709 38.8859H19.6329C22.041 38.8859 24 36.9269 24 34.5188V32.2783H0ZM10.8608 35.2405C10.8608 34.6113 11.3708 34.1013 12 34.1013C12.6292 34.1013 13.1392 34.6113 13.1392 35.2405V35.3924C13.1392 36.0216 12.6292 36.5316 12 36.5316C11.3708 36.5316 10.8608 36.0216 10.8608 35.3924V35.2405Z" fill="#A39B9B"/>
<path d="M24 30V4.36709C24 1.95904 22.041 0 19.6329 0H4.36709C1.95911 0 0 1.95904 0 4.36709V30H24Z" fill="#A39B9B"/>
<path d="M7.14283 9.30908H12.7532C13.5247 9.30908 14.1558 9.93949 14.1558 10.71C14.1558 11.4805 13.5247 12.1109 12.7532 12.1109H7.14283C6.3714 12.1109 5.74023 11.4805 5.74023 10.71C5.74023 9.93949 6.3714 9.30908 7.14283 9.30908ZM14.1558 23.3182H7.14283C6.3714 23.3182 5.74023 22.6878 5.74023 21.9173C5.74023 21.1468 6.3714 20.5164 7.14283 20.5164H14.1558C14.9272 20.5164 15.5584 21.1468 15.5584 21.9173C15.5584 22.6878 14.9272 23.3182 14.1558 23.3182ZM19.7662 17.7146H7.14283C6.3714 17.7146 5.74023 17.0842 5.74023 16.3137C5.74023 15.5432 6.3714 14.9127 7.14283 14.9127H19.7662C20.5376 14.9127 21.1688 15.5432 21.1688 16.3137C21.1688 17.0842 20.5376 17.7146 19.7662 17.7146Z" fill="white"/>
</svg>
