<svg width="60" height="60" viewBox="0 0 60 60" fill="none" xmlns="http://www.w3.org/2000/svg">
<g clip-path="url(#clip0)" filter="url(#filter0_d)">
<path d="M22.0881 18.5617C21.5013 15.2635 18.3424 13.057 15.0446 13.639L7.91942 14.8577C6.81615 15.0464 6.07464 16.0938 6.26334 17.1972C6.45205 18.3006 7.49966 19.0418 8.60283 18.8533L14.8335 17.7876L5.01758 33.5925C3.72357 35.6762 3.66009 38.1952 4.84787 40.331C6.04945 42.4915 8.25458 43.7816 10.7466 43.7816H19.5147C20.6341 43.7816 21.5415 42.8742 21.5415 41.7548C21.5415 40.6354 20.6341 39.728 19.5147 39.728H10.7466C9.74744 39.728 8.86669 39.217 8.39057 38.3609C8.16866 37.9618 7.73123 36.9066 8.46126 35.7312L18.2275 20.0058L19.4197 26.7062C19.5944 27.6882 20.449 28.3783 21.4128 28.3783C21.5306 28.3783 21.6502 28.3678 21.7702 28.3466C22.8723 28.1505 23.6068 27.0981 23.4108 25.9961L22.0881 18.5617Z" fill="#6E8996"/>
<path d="M54.8823 33.4412L51.1001 27.6716C50.4863 26.7355 49.2299 26.4742 48.2938 27.0878C47.3576 27.7015 47.0963 28.9579 47.71 29.894L51.4957 35.6691C52.0364 36.4882 52.082 37.4926 51.6176 38.3558C51.144 39.236 50.2589 39.7614 49.2499 39.7614H30.7111L35.659 34.8887C36.4565 34.1032 36.4664 32.8199 35.6809 32.0224C34.8955 31.2249 33.6123 31.215 32.8146 32.0004L27.4878 37.2464C26.3293 38.3955 25.6914 39.9245 25.6914 41.5518C25.6914 43.179 26.3293 44.708 27.4838 45.853L32.6355 50.9925C33.0311 51.3872 33.5491 51.5844 34.067 51.5844C34.5865 51.5844 35.106 51.3859 35.5018 50.9891C36.2924 50.1966 36.2909 48.9133 35.4984 48.1227L31.1803 43.8149H49.2498C51.7377 43.8149 54.0127 42.459 55.1872 40.2765C56.3704 38.0779 56.2551 35.5207 54.8823 33.4412Z" fill="#6E8996"/>
<path d="M27.1772 5.73294C27.6676 4.94329 28.4869 4.48291 29.4249 4.46991C30.3606 4.45488 31.1957 4.89474 31.7076 5.67007L41.1567 20.0041L35.4006 18.8883C34.3019 18.6757 33.2383 19.3935 33.0252 20.4924C32.8121 21.5913 33.5303 22.6548 34.6293 22.8678L41.6064 24.2203C41.6138 24.2217 41.6213 24.2231 41.6288 24.2245C41.9959 24.2915 42.3609 24.3236 42.7214 24.3236C45.601 24.3236 48.1665 22.264 48.7004 19.3334L49.9809 12.3243C50.1821 11.2232 49.4525 10.1675 48.3514 9.96627C47.2503 9.76477 46.1944 10.4947 45.9933 11.5958L44.7945 18.1575L35.0912 3.43783C33.821 1.51393 31.6797 0.385368 29.3685 0.416649C27.0607 0.448641 24.9581 1.63184 23.7411 3.58215L20.6394 8.43673C20.0368 9.38005 20.3128 10.6333 21.2561 11.236C22.1994 11.8387 23.4527 11.5625 24.0554 10.6193L27.1633 5.75498C27.168 5.74756 27.1726 5.74025 27.1772 5.73294Z" fill="#6E8996"/>
</g>
<defs>
<filter id="filter0_d" x="0" y="0" width="60" height="60" filterUnits="userSpaceOnUse" color-interpolation-filters="sRGB">
<feFlood flood-opacity="0" result="BackgroundImageFix"/>
<feColorMatrix in="SourceAlpha" type="matrix" values="0 0 0 0 0 0 0 0 0 0 0 0 0 0 0 0 0 0 127 0"/>
<feOffset dy="4"/>
<feGaussianBlur stdDeviation="2"/>
<feColorMatrix type="matrix" values="0 0 0 0 0 0 0 0 0 0 0 0 0 0 0 0 0 0 0.25 0"/>
<feBlend mode="normal" in2="BackgroundImageFix" result="effect1_dropShadow"/>
<feBlend mode="normal" in="SourceGraphic" in2="effect1_dropShadow" result="shape"/>
</filter>
<clipPath id="clip0">
<rect width="52" height="52" fill="white" transform="translate(4)"/>
</clipPath>
</defs>
</svg>
