<svg width="52" height="52" viewBox="0 0 52 52" fill="none" xmlns="http://www.w3.org/2000/svg">
<g clip-path="url(#clip0)">
<path d="M18.0881 18.5614C17.5013 15.2633 14.3424 13.0567 11.0446 13.6388L3.91942 14.8574C2.81615 15.0462 2.07464 16.0936 2.26334 17.1969C2.45205 18.3003 3.49966 19.0415 4.60283 18.853L10.8335 17.7873L1.01758 33.5923C-0.276431 35.6759 -0.339907 38.195 0.847866 40.3307C2.04945 42.4913 4.25458 43.7813 6.74662 43.7813H15.5147C16.6341 43.7813 17.5415 42.874 17.5415 41.7546C17.5415 40.6351 16.6341 39.7278 15.5147 39.7278H6.74662C5.74744 39.7278 4.86669 39.2167 4.39057 38.3606C4.16866 37.9616 3.73123 36.9064 4.46126 35.731L14.2275 20.0055L15.4197 26.7059C15.5944 27.6879 16.449 28.3781 17.4128 28.3781C17.5306 28.3781 17.6502 28.3676 17.7702 28.3464C18.8723 28.1503 19.6068 27.0979 19.4107 25.9958L18.0881 18.5614Z" fill="#6E8996"/>
<path d="M50.8823 33.4412L47.1001 27.6716C46.4863 26.7355 45.2299 26.4742 44.2938 27.0878C43.3576 27.7015 43.0963 28.9579 43.71 29.894L47.4957 35.6691C48.0364 36.4882 48.082 37.4926 47.6176 38.3558C47.144 39.236 46.2589 39.7614 45.2499 39.7614H26.7111L31.659 34.8887C32.4565 34.1032 32.4664 32.8199 31.6809 32.0224C30.8955 31.2249 29.6123 31.215 28.8146 32.0004L23.4878 37.2464C22.3293 38.3955 21.6914 39.9245 21.6914 41.5518C21.6914 43.179 22.3293 44.708 23.4838 45.853L28.6355 50.9925C29.0311 51.3872 29.5491 51.5844 30.067 51.5844C30.5865 51.5844 31.106 51.3859 31.5018 50.9891C32.2924 50.1966 32.2909 48.9133 31.4984 48.1227L27.1803 43.8149H45.2498C47.7377 43.8149 50.0127 42.459 51.1872 40.2765C52.3704 38.0779 52.2551 35.5207 50.8823 33.4412Z" fill="#6E8996"/>
<path d="M23.1772 5.73294C23.6676 4.94329 24.4869 4.48291 25.4249 4.46991C26.3606 4.45487 27.1957 4.89474 27.7076 5.67007L37.1567 20.0041L31.4006 18.8883C30.3019 18.6757 29.2383 19.3935 29.0252 20.4924C28.8121 21.5913 29.5303 22.6548 30.6293 22.8678L37.6064 24.2203C37.6138 24.2217 37.6213 24.2231 37.6288 24.2245C37.9959 24.2915 38.3609 24.3236 38.7214 24.3236C41.601 24.3236 44.1665 22.264 44.7004 19.3334L45.9809 12.3243C46.1821 11.2232 45.4525 10.1675 44.3514 9.96627C43.2503 9.76477 42.1944 10.4947 41.9933 11.5958L40.7945 18.1575L31.0912 3.43783C29.821 1.51393 27.6797 0.385368 25.3685 0.416649C23.0607 0.448641 20.9581 1.63184 19.7411 3.58215L16.6394 8.43673C16.0368 9.38005 16.3128 10.6333 17.2561 11.236C18.1994 11.8387 19.4527 11.5625 20.0554 10.6193L23.1633 5.75498C23.168 5.74756 23.1726 5.74025 23.1772 5.73294Z" fill="#6E8996"/>
</g>
<defs>
<clipPath id="clip0">
<rect width="52" height="52" fill="white"/>
</clipPath>
</defs>
</svg>
