<svg width="67" height="70" viewBox="0 0 67 70" fill="none" xmlns="http://www.w3.org/2000/svg">
<circle cx="45" cy="48" r="22" fill="#F7DCB9"/>
<path d="M37.2137 0H7.78627C3.49225 0 0 3.49225 0 7.78627V55.0363C0 56.8585 1.00458 58.5095 2.62394 59.343C4.24648 60.1764 6.17007 60.0401 7.82746 58.8454L22.5 45.656L37.1725 58.8454C37.2264 58.893 37.2803 58.9373 37.3405 58.9785C38.1835 59.5775 39.1658 59.8849 40.1546 59.8849C40.912 59.8849 41.6725 59.7074 42.3761 59.3461C43.9954 58.5127 45 56.8616 45 55.0394V7.78627C45 3.49225 41.5077 0 37.2137 0ZM41.1972 55.0363C41.1972 55.6099 40.8011 55.8729 40.6299 55.9616C40.4683 56.044 40.0532 56.1961 39.6158 55.9268L23.7708 41.682C23.0451 41.0324 21.9518 41.0324 21.2261 41.682L5.44753 55.8792C4.98169 56.2088 4.53486 56.044 4.36373 55.9585C4.19894 55.8761 3.80282 55.6099 3.80282 55.0363V7.78627C3.80282 5.59014 5.59014 3.80282 7.78944 3.80282H37.2137C39.4099 3.80282 41.2003 5.59014 41.2003 7.78627V55.0363H41.1972Z" fill="#3A3A3A"/>
<path d="M34.1724 20.153C34.5434 21.2947 34.1579 22.4924 33.1905 23.1953L33.0435 22.993L33.1905 23.1953L29.502 25.8751L29.502 25.8751C29.3524 25.9837 29.2906 26.174 29.3477 26.3498L29.3478 26.3499L30.7566 30.6858C31.1252 31.8202 30.7382 33.0113 29.7733 33.7123C29.2925 34.0616 28.7385 34.2381 28.1822 34.2381C27.6259 34.2381 27.0718 34.0616 26.5911 33.7123C26.5911 33.7123 26.5911 33.7123 26.5911 33.7123L22.9027 31.0325C22.7531 30.9238 22.553 30.9238 22.4035 31.0325L22.4034 31.0325L18.715 33.7123L18.5681 33.51L18.715 33.7123C17.7501 34.4133 16.4978 34.4134 15.5329 33.7123C14.568 33.0113 14.181 31.8202 14.5495 30.6858L15.514 27.7175C15.7087 27.1181 16.3526 26.7901 16.9519 26.9848C17.5513 27.1796 17.8793 27.8233 17.6845 28.4227L16.7201 31.3911L16.4934 31.3174L16.7201 31.3911C16.6326 31.6603 16.8034 31.8143 16.8743 31.8659C16.9452 31.9174 17.1445 32.0324 17.3736 31.8659L17.3736 31.8659L21.062 29.1862C22.0134 28.4949 23.2928 28.4949 24.2442 29.1861L27.9326 31.8659C28.1618 32.0324 28.3611 31.9173 28.4319 31.8659C28.5027 31.8144 28.6736 31.6604 28.5861 31.3911C28.5861 31.3911 28.5861 31.3911 28.5861 31.391L27.1773 27.0551C26.8138 25.9367 27.2092 24.7199 28.1606 24.0287L31.849 21.3489L31.849 21.3489C32.0793 21.1816 32.0311 20.948 32.0019 20.8583C31.9732 20.7698 31.8769 20.5578 31.5994 20.5578H27.0403C25.8624 20.5578 24.8256 19.8174 24.4653 18.7086L24.4652 18.7081L23.057 14.3462C23.057 14.3461 23.057 14.3461 23.057 14.346C22.9694 14.0767 22.7405 14.0527 22.6531 14.0527C22.5652 14.0527 22.3368 14.077 22.2498 14.3441C22.2498 14.3443 22.2497 14.3444 22.2497 14.3446L20.8405 18.7097L20.8403 18.7102C20.4805 19.8175 19.4437 20.5578 18.2659 20.5578H13.7068C13.4292 20.5578 13.3331 20.7698 13.3043 20.8583C13.2751 20.948 13.2269 21.1816 13.4572 21.3489L13.4572 21.3489L15.9722 23.1761L15.9722 23.1762C16.482 23.5467 16.595 24.2602 16.2246 24.7701L16.0223 24.6232L16.2246 24.7701C15.8541 25.28 15.1406 25.3929 14.6307 25.0226L14.6306 25.0226L12.1157 23.1953C11.1482 22.4924 10.7627 21.2948 11.1337 20.153L11.3671 20.2288L11.1337 20.153C11.5034 19.0153 12.5154 18.2755 13.7068 18.2755H18.2658C18.4701 18.2755 18.6188 18.1618 18.6692 18.0065L20.0784 13.6413L20.0785 13.6408C20.4471 12.5065 21.4603 11.7704 22.653 11.7704C23.8458 11.7704 24.8589 12.5066 25.228 13.6425L25.2281 13.6429L26.6363 18.0049C26.6363 18.0049 26.6363 18.005 26.6363 18.005C26.6875 18.1622 26.8363 18.2755 27.0402 18.2755H31.5994C32.7907 18.2755 33.8027 19.0153 34.1724 20.153ZM34.1724 20.153L33.9347 20.2302L34.1724 20.153C34.1724 20.153 34.1724 20.153 34.1724 20.153Z" fill="#3A3A3A" stroke="#3A3A3A" stroke-width="0.5"/>
</svg>
