<svg width="65" height="58" viewBox="0 0 65 58" fill="none" xmlns="http://www.w3.org/2000/svg">
<circle cx="43" cy="36" r="22" fill="#CADDD8"/>
<g clip-path="url(#clip0)">
<path d="M9.63352 50C9.04221 50 8.44172 49.904 7.85158 49.7059C5.61407 48.9547 4.1418 46.9425 4.10088 44.5794C4.10068 44.5682 4.10059 44.5568 4.10059 44.5456V5.50806C4.11084 3.40297 5.28155 1.52005 7.15577 0.584405C9.02434 -0.348509 11.2252 -0.153879 12.8993 1.09232C12.9045 1.09622 12.9098 1.10023 12.9151 1.10423L30.9759 14.8344C31.8346 15.4872 32.0015 16.7125 31.3486 17.5712C30.6959 18.4299 29.4707 18.5969 28.6118 17.9439L10.5604 4.22085C9.85276 3.69877 9.16428 3.9478 8.90051 4.07944C8.63332 4.21284 8.01125 4.61997 8.00695 5.51763V44.5259C8.03214 45.5655 8.84523 45.919 9.09484 46.0028C9.34318 46.0861 10.1969 46.2932 10.8445 45.496L20.9796 31.377C21.3465 30.8659 21.9371 30.5628 22.5663 30.5628H40.4238C41.4557 30.534 41.8133 29.7041 41.8987 29.4493C41.9848 29.1918 42.2012 28.304 41.3837 27.6533L37.0106 24.3287C36.1519 23.6759 35.985 22.4506 36.6378 21.5919C37.2906 20.7333 38.5159 20.5662 39.3746 21.2192L43.7619 24.5544C43.77 24.5606 43.7782 24.5668 43.7862 24.5732C45.6449 26.0329 46.358 28.4336 45.603 30.6892C44.8501 32.9386 42.8412 34.4222 40.4851 34.4687C40.4722 34.4689 40.4594 34.4691 40.4465 34.4691H23.5685L13.9895 47.8132C13.9733 47.8357 13.9568 47.8578 13.9397 47.8795C12.8649 49.2499 11.2855 49.9999 9.63352 50Z" fill="black"/>
</g>
<defs>
<clipPath id="clip0">
<rect width="50" height="50" fill="white"/>
</clipPath>
</defs>
</svg>
