<svg width="77" height="69" viewBox="0 0 77 69" fill="none" xmlns="http://www.w3.org/2000/svg">
<circle cx="54.4362" cy="46.4362" r="22.4362" fill="#B6CFDE"/>
<path d="M6.21094 17.5977H11.3867C14.8114 17.5977 17.5977 14.8114 17.5977 11.3867V6.21094C17.5977 2.78623 14.8114 0 11.3867 0H6.21094C2.78623 0 0 2.78623 0 6.21094V11.3867C0 14.8114 2.78623 17.5977 6.21094 17.5977ZM4.14062 6.21094C4.14062 5.06937 5.06937 4.14062 6.21094 4.14062H11.3867C12.5283 4.14062 13.457 5.06937 13.457 6.21094V11.3867C13.457 12.5283 12.5283 13.457 11.3867 13.457H6.21094C5.06937 13.457 4.14062 12.5283 4.14062 11.3867V6.21094Z" fill="#3A3A3A"/>
<path d="M45.5469 36.748H41.4062V40.8887H45.5469V36.748Z" fill="#3A3A3A"/>
<path d="M53 36.748H48.8594V45.0293H53V36.748Z" fill="#3A3A3A"/>
<path d="M41.4062 40.8887H37.2656V45.0293H41.4062V40.8887Z" fill="#3A3A3A"/>
<path d="M28.9844 53V48.8594H33.0215V53H37.1621V48.8594H33.125V44.7188H24.8438V53H28.9844Z" fill="#3A3A3A"/>
<path d="M45.5469 53V49.1699H48.8594V45.0293H41.4062V53H45.5469Z" fill="#3A3A3A"/>
<path d="M10.8691 6.72852H6.72852V10.8691H10.8691V6.72852Z" fill="#3A3A3A"/>
<path d="M10.8691 42.1309H6.72852V46.2715H10.8691V42.1309Z" fill="#3A3A3A"/>
<path d="M24.8438 36.8516H20.7031V44.7188H24.8438V36.8516Z" fill="#3A3A3A"/>
<path d="M37.2656 28.6738H33.125V32.8145H37.2656V28.6738Z" fill="#3A3A3A"/>
<path d="M11.3867 35.4023H6.21094C2.78623 35.4023 0 38.1886 0 41.6133V46.7891C0 50.2138 2.78623 53 6.21094 53H11.3867C14.8114 53 17.5977 50.2138 17.5977 46.7891V41.6133C17.5977 38.1886 14.8114 35.4023 11.3867 35.4023ZM13.457 46.7891C13.457 47.9306 12.5283 48.8594 11.3867 48.8594H6.21094C5.06937 48.8594 4.14062 47.9306 4.14062 46.7891V41.6133C4.14062 40.4717 5.06937 39.543 6.21094 39.543H11.3867C12.5283 39.543 13.457 40.4717 13.457 41.6133V46.7891Z" fill="#3A3A3A"/>
<path d="M24.8438 12.1113V16.252H20.7031V20.3926H28.9844V12.1113H24.8438Z" fill="#3A3A3A"/>
<path d="M28.9844 0H24.8438V4.14062H28.9844V0Z" fill="#3A3A3A"/>
<path d="M33.125 7.9707H28.9844V12.1113H33.125V7.9707Z" fill="#3A3A3A"/>
<path d="M48.8594 20.3926H41.3027V24.5332H37.2656V28.6738H41.4062V32.7109H53V24.4297H48.8594V20.3926ZM48.8594 28.5703H41.4062V24.5332H48.8594V28.5703Z" fill="#3A3A3A"/>
<path d="M33.125 20.3926H28.9844V28.6738H33.125V20.3926Z" fill="#3A3A3A"/>
<path d="M46.7891 0H41.6133C38.1886 0 35.4023 2.78623 35.4023 6.21094V11.3867C35.4023 14.8114 38.1886 17.5977 41.6133 17.5977H46.7891C50.2138 17.5977 53 14.8114 53 11.3867V6.21094C53 2.78623 50.2138 0 46.7891 0ZM48.8594 11.3867C48.8594 12.5283 47.9306 13.457 46.7891 13.457H41.6133C40.4717 13.457 39.543 12.5283 39.543 11.3867V6.21094C39.543 5.06937 40.4717 4.14062 41.6133 4.14062H46.7891C47.9306 4.14062 48.8594 5.06937 48.8594 6.21094V11.3867Z" fill="#3A3A3A"/>
<path d="M46.2715 6.72852H42.1309V10.8691H46.2715V6.72852Z" fill="#3A3A3A"/>
<path d="M8.28125 20.3926H4.14062V24.5332H8.28125V20.3926Z" fill="#3A3A3A"/>
<path d="M4.14062 24.5332H0V32.8145H4.14062V24.5332Z" fill="#3A3A3A"/>
<path d="M8.28125 28.6738H12.3184V32.8145H16.459V28.6738H12.4219V24.5332H8.28125V28.6738Z" fill="#3A3A3A"/>
<path d="M24.8438 4.14062H20.7031V12.1113H24.8438V4.14062Z" fill="#3A3A3A"/>
<path d="M24.8438 32.8145V36.8516H28.9844V40.8887H37.2656V36.748H28.9844V32.7109H24.8438V24.5332H20.7031V32.8145H24.8438Z" fill="#3A3A3A"/>
<path d="M20.7031 20.3926H12.4219V24.5332H20.7031V20.3926Z" fill="#3A3A3A"/>
</svg>
