<svg width="73" height="74" viewBox="0 0 73 74" fill="none" xmlns="http://www.w3.org/2000/svg">
<circle cx="49.9894" cy="51.5639" r="22.4362" fill="#D5CFE1"/>
<g clip-path="url(#clip0)">
<path d="M40.1032 25.0316C40.1032 23.7748 39.0844 22.756 37.8276 22.756H14.3889C13.1321 22.756 12.1133 23.7748 12.1133 25.0316C12.1133 26.2884 13.1321 27.3072 14.3889 27.3072H37.8276C39.0844 27.3072 40.1032 26.2884 40.1032 25.0316Z" fill="#3A3A3A"/>
<path d="M14.3889 31.8584C13.1321 31.8584 12.1133 32.8772 12.1133 34.134C12.1133 35.3908 13.1321 36.4096 14.3889 36.4096H28.624C29.8808 36.4096 30.8996 35.3908 30.8996 34.134C30.8996 32.8772 29.8808 31.8584 28.624 31.8584H14.3889Z" fill="#3A3A3A"/>
<path d="M19.7365 53.7041H12.1258C9.6163 53.7041 7.57463 51.6625 7.57463 49.1529V9.10239C7.57463 6.59286 9.6163 4.5512 12.1258 4.5512H40.1031C42.6126 4.5512 44.6543 6.59286 44.6543 9.10239V23.0973C44.6543 24.3541 45.673 25.3729 46.9299 25.3729C48.1867 25.3729 49.2055 24.3541 49.2055 23.0973V9.10239C49.2055 4.08333 45.1221 0 40.1031 0H12.1258C7.10677 0 3.02344 4.08333 3.02344 9.10239V49.1529C3.02344 54.172 7.10677 58.2553 12.1258 58.2553H19.7365C20.9933 58.2553 22.0121 57.2365 22.0121 55.9797C22.0121 54.7229 20.9933 53.7041 19.7365 53.7041Z" fill="#3A3A3A"/>
<path d="M53.236 32.9474C50.5742 30.2856 46.2433 30.2855 43.5832 32.9456L31.0898 45.4113C30.8245 45.6761 30.6288 46.0022 30.5198 46.3608L27.799 55.3181C27.5578 56.1123 27.7679 56.9746 28.3475 57.5687C28.7817 58.0137 29.3715 58.2552 29.9765 58.2552C30.1789 58.2552 30.3833 58.2282 30.5839 58.1725L39.7687 55.6283C40.1467 55.5236 40.4912 55.323 40.7689 55.0458L53.2361 42.6021C55.8978 39.9403 55.8978 35.6094 53.236 32.9474ZM37.9772 51.402L33.3563 52.6821L34.7086 48.23L43.1384 39.8188L46.3573 43.0376L37.9772 51.402ZM50.0195 39.3826L49.5786 39.8226L46.3604 36.6043L46.7998 36.1658C47.687 35.2785 49.1307 35.2785 50.0179 36.1658C50.9052 37.053 50.9052 38.4967 50.0195 39.3826Z" fill="#3A3A3A"/>
<path d="M37.8276 13.6536H14.3889C13.1321 13.6536 12.1133 14.6723 12.1133 15.9292C12.1133 17.186 13.1321 18.2048 14.3889 18.2048H37.8276C39.0844 18.2048 40.1032 17.186 40.1032 15.9292C40.1032 14.6723 39.0844 13.6536 37.8276 13.6536Z" fill="#3A3A3A"/>
</g>
<defs>
<clipPath id="clip0">
<rect width="58.2553" height="58.2553" fill="white"/>
</clipPath>
</defs>
</svg>
