<svg width="26" height="26" viewBox="0 0 26 26" fill="none" xmlns="http://www.w3.org/2000/svg">
<path d="M18.7327 0.5H7.26727C3.53574 0.5 0.5 3.53574 0.5 7.26727V18.7329C0.5 22.4643 3.53574 25.5 7.26727 25.5H18.7329C22.4643 25.5 25.5 22.4643 25.5 18.7329V7.26727C25.5 3.53574 22.4643 0.5 18.7327 0.5V0.5ZM13 19.8357C9.2307 19.8357 6.16425 16.7693 6.16425 13C6.16425 9.2307 9.2307 6.16425 13 6.16425C16.7693 6.16425 19.8357 9.2307 19.8357 13C19.8357 16.7693 16.7693 19.8357 13 19.8357ZM19.9992 7.77634C18.8853 7.77634 17.9793 6.87035 17.9793 5.75646C17.9793 4.64257 18.8853 3.73639 19.9992 3.73639C21.1131 3.73639 22.0193 4.64257 22.0193 5.75646C22.0193 6.87035 21.1131 7.77634 19.9992 7.77634Z" fill="#FBFBFB" fill-opacity="0.7"/>
<path d="M13 7.62988C10.0391 7.62988 7.62988 10.0389 7.62988 13C7.62988 15.961 10.0391 18.3702 13 18.3702C15.9612 18.3702 18.3702 15.961 18.3702 13C18.3702 10.0389 15.9612 7.62988 13 7.62988Z" fill="#FBFBFB" fill-opacity="0.7"/>
<path d="M19.9996 5.20215C19.694 5.20215 19.4453 5.45087 19.4453 5.75642C19.4453 6.06198 19.694 6.3107 19.9996 6.3107C20.3053 6.3107 20.5541 6.06217 20.5541 5.75642C20.5541 5.45068 20.3053 5.20215 19.9996 5.20215Z" fill="#FBFBFB" fill-opacity="0.7"/>
</svg>
