<svg width="296" height="296" viewBox="0 0 296 296" fill="none" xmlns="http://www.w3.org/2000/svg">
<path d="M215.875 0H80.1245C35.9431 0 0 35.9431 0 80.1245V215.878C0 260.057 35.9431 296 80.1245 296H215.878C260.057 296 296 260.057 296 215.878V80.1245C296 35.9431 260.057 0 215.875 0V0ZM148 228.935C103.371 228.935 67.0648 192.629 67.0648 148C67.0648 103.371 103.371 67.0648 148 67.0648C192.629 67.0648 228.935 103.371 228.935 148C228.935 192.629 192.629 228.935 148 228.935ZM230.871 86.1519C217.682 86.1519 206.955 75.425 206.955 62.2365C206.955 49.048 217.682 38.3188 230.871 38.3188C244.059 38.3188 254.788 49.048 254.788 62.2365C254.788 75.425 244.059 86.1519 230.871 86.1519Z" fill="white"/>
<path d="M148 84.4175C112.943 84.4175 84.418 112.94 84.418 148C84.418 183.058 112.943 211.582 148 211.582C183.061 211.582 211.583 183.058 211.583 148C211.583 112.94 183.061 84.4175 148 84.4175Z" fill="white"/>
<path d="M230.87 55.6738C227.252 55.6738 224.308 58.6187 224.308 62.2365C224.308 65.8542 227.252 68.7991 230.87 68.7991C234.49 68.7991 237.435 65.8565 237.435 62.2365C237.435 58.6164 234.49 55.6738 230.87 55.6738Z" fill="white"/>
</svg>
