<svg width="171" height="174" viewBox="0 0 171 174" fill="none" xmlns="http://www.w3.org/2000/svg">
<path d="M118.844 103.251C139.731 73.7574 132.745 32.9169 103.251 12.0351C73.7574 -8.84664 32.9169 -1.86609 12.0351 27.6329C-8.84664 57.1268 -1.86609 97.9623 27.6329 118.844C48.6843 133.748 76.5167 134.896 98.7207 121.783L146.966 169.739C152.175 175.222 160.842 175.442 166.326 170.233C171.809 165.028 172.029 156.361 166.825 150.878C166.66 150.703 166.5 150.543 166.326 150.379L118.844 103.251ZM65.3997 107.722C42.0929 107.727 23.197 88.8461 23.1821 65.5394C23.1771 42.2326 42.058 23.3367 65.3697 23.3268C88.6466 23.3168 107.532 42.1678 107.577 65.4446C107.617 88.7563 88.7464 107.682 65.4296 107.722C65.4196 107.722 65.4146 107.722 65.3997 107.722Z" fill="white"/>
</svg>
