<svg width="45" height="45" viewBox="0 0 45 45" fill="none" xmlns="http://www.w3.org/2000/svg">
<path d="M43.4406 0H18.2553C14.816 0 12.0175 2.79816 12.0175 6.23779V29.7855H6.55945C5.69824 29.7855 5 30.4837 5 31.3449V33.6841C5 37.1237 7.79816 39.9219 11.2378 39.9219H34.0839C34.1098 39.9219 34.1357 39.9219 34.1617 39.9216C34.1876 39.9219 34.2139 39.9219 34.2398 39.9219C34.2923 39.9219 34.3445 39.9194 34.3958 39.9142C37.691 39.7513 40.3217 37.019 40.3217 33.6841C40.3217 32.8229 39.6234 32.1246 38.7622 32.1246C37.901 32.1246 37.2028 32.8229 37.2028 33.6841C37.2028 35.3781 35.8456 36.7606 34.1617 36.8021C32.4777 36.7606 31.1209 35.3778 31.1209 33.6841V31.3449C31.1209 30.4837 30.4227 29.7855 29.5615 29.7855H15.1364V6.23779C15.1364 4.51813 16.5356 3.1189 18.2553 3.1189H38.0399C37.5076 4.03687 37.2028 5.10254 37.2028 6.23779V25.8868C37.2028 26.7484 37.901 27.4463 38.7622 27.4463C39.6234 27.4463 40.3217 26.7484 40.3217 25.8868V6.23779C40.3217 4.51813 41.7209 3.1189 43.4406 3.1189C44.3018 3.1189 45 2.42065 45 1.55945C45 0.698242 44.3018 0 43.4406 0ZM28.8391 36.803H11.2378C9.51813 36.803 8.1189 35.4041 8.1189 33.6841V32.9044H28.002V33.6841C28.002 34.8196 28.3069 35.885 28.8391 36.803Z" fill="#AB8A8A"/>
</svg>
