<svg width="40" height="40" viewBox="0 0 40 40" fill="none" xmlns="http://www.w3.org/2000/svg">
<path d="M23.75 0H4.58333C2.05 0 0 2.05 0 4.58333V30.4167C0 32.95 2.05 35 4.58333 35H21.6667V31.25C21.6667 28.8667 23.0333 26.8 25 25.75C25.0333 23.1833 26.35 20.9333 28.3333 19.6V4.58333C28.3333 2.05 26.2833 0 23.75 0ZM6.66667 6.66667H13.3333C14.25 6.66667 15 7.41667 15 8.33333C15 9.25 14.25 10 13.3333 10H6.66667C5.75 10 5 9.25 5 8.33333C5 7.41667 5.75 6.66667 6.66667 6.66667ZM15 23.3333H6.66667C5.75 23.3333 5 22.5833 5 21.6667C5 20.75 5.75 20 6.66667 20H15C15.9167 20 16.6667 20.75 16.6667 21.6667C16.6667 22.5833 15.9167 23.3333 15 23.3333ZM21.6667 16.6667H6.66667C5.75 16.6667 5 15.9167 5 15C5 14.0833 5.75 13.3333 6.66667 13.3333H21.6667C22.5833 13.3333 23.3333 14.0833 23.3333 15C23.3333 15.9167 22.5833 16.6667 21.6667 16.6667Z" fill="#9C94AC"/>
<path d="M35.4163 30.8334H29.583C28.893 30.8334 28.333 30.2734 28.333 29.5834V25.8334C28.333 23.5367 30.2013 21.6667 32.4997 21.6667C34.798 21.6667 36.6663 23.5367 36.6663 25.8334V29.5834C36.6663 30.2734 36.1063 30.8334 35.4163 30.8334ZM30.833 28.3334H34.1663V25.8334C34.1663 24.9151 33.4197 24.1667 32.4997 24.1667C31.5797 24.1667 30.833 24.9151 30.833 25.8334V28.3334Z" fill="#9C94AC"/>
<path d="M37.0833 39.9999H27.9167C26.3083 39.9999 25 38.6916 25 37.0832V31.2499C25 29.6416 26.3083 28.3333 27.9167 28.3333H37.0833C38.6917 28.3333 40 29.6416 40 31.2499V37.0832C40 38.6916 38.6917 39.9999 37.0833 39.9999Z" fill="#9C94AC"/>
</svg>
