<svg width="41" height="42" viewBox="0 0 41 42" fill="none" xmlns="http://www.w3.org/2000/svg">
<path d="M25.8869 17.4758C25.8869 16.5984 25.1756 15.8871 24.2981 15.8871H7.93441C7.05697 15.8871 6.3457 16.5984 6.3457 17.4758C6.3457 18.3532 7.05697 19.0645 7.93441 19.0645H24.2981C25.1756 19.0645 25.8869 18.3532 25.8869 17.4758Z" fill="#77898B"/>
<path d="M7.93441 22.2419C7.05697 22.2419 6.3457 22.9532 6.3457 23.8307C6.3457 24.7081 7.05697 25.4194 7.93441 25.4194H17.8727C18.7501 25.4194 19.4614 24.7081 19.4614 23.8307C19.4614 22.9532 18.7501 22.2419 17.8727 22.2419H7.93441Z" fill="#77898B"/>
<path d="M11.6682 37.4936H6.35485C4.60281 37.4936 3.17742 36.0682 3.17742 34.3162V6.35485C3.17742 4.60281 4.60281 3.17742 6.35485 3.17742H25.8872C27.6392 3.17742 29.0646 4.60281 29.0646 6.35485V16.1254C29.0646 17.0029 29.7759 17.7141 30.6533 17.7141C31.5308 17.7141 32.242 17.0029 32.242 16.1254V6.35485C32.242 2.85078 29.3912 0 25.8872 0H6.35485C2.85078 0 0 2.85078 0 6.35485V34.3162C0 37.8202 2.85078 40.671 6.35485 40.671H11.6682C12.5457 40.671 13.2569 39.9597 13.2569 39.0823C13.2569 38.2049 12.5457 37.4936 11.6682 37.4936Z" fill="#77898B"/>
<path d="M24.2981 9.53229H7.93441C7.05697 9.53229 6.3457 10.2436 6.3457 11.121C6.3457 11.9984 7.05697 12.7097 7.93441 12.7097H24.2981C25.1756 12.7097 25.8869 11.9984 25.8869 11.121C25.8869 10.2436 25.1756 9.53229 24.2981 9.53229Z" fill="#77898B"/>
<path d="M40.0001 34.2232V36.3858C40.0001 36.8049 39.6604 37.1446 39.2413 37.1446H37.1167C36.6976 37.1446 36.3579 36.8049 36.3579 36.3858C36.3579 35.9667 36.6976 35.627 37.1167 35.627H38.4825V34.2232C38.4825 33.8041 38.8222 33.4645 39.2413 33.4645C39.6604 33.4645 40.0001 33.8041 40.0001 34.2232ZM29.5289 30.5052C29.948 30.5052 30.2877 30.1655 30.2877 29.7464V28.0391H31.0464C31.4656 28.0391 31.8052 27.6995 31.8052 27.2804V23.0312C31.8052 22.6029 31.4504 22.2576 31.0187 22.2728C30.6076 22.2875 30.2877 22.6378 30.2877 23.0494V23.6382H29.5289C29.1098 23.6382 28.7701 23.9779 28.7701 24.397C28.7701 24.8161 29.1098 25.1558 29.5289 25.1558H30.2877V26.5216H29.5289C29.1098 26.5216 28.7701 26.8612 28.7701 27.2804V29.7464C28.7701 30.1655 29.1098 30.5052 29.5289 30.5052ZM21.334 33.4645C21.7531 33.4645 22.0928 33.1248 22.0928 32.7057V31.9469H22.8895C23.3086 31.9469 23.6483 31.6072 23.6483 31.1881C23.6483 30.769 23.3086 30.4293 22.8895 30.4293H21.334C20.9149 30.4293 20.5752 30.769 20.5752 31.1881V32.7057C20.5752 33.1248 20.9149 33.4645 21.334 33.4645ZM32.564 31.9469H34.6127V34.205C34.6127 34.6166 34.9327 34.9669 35.3438 34.9816C35.7755 34.9968 36.1303 34.6515 36.1303 34.2232V33.4645H36.927C37.3461 33.4645 37.6858 33.1248 37.6858 32.7057C37.6858 32.2866 37.3461 31.9469 36.927 31.9469H36.1303V31.1881C36.1303 30.769 35.7906 30.4293 35.3715 30.4293H32.564C32.1449 30.4293 31.8052 30.769 31.8052 31.1881C31.8052 31.6072 32.1449 31.9469 32.564 31.9469ZM39.2413 30.4293C38.8222 30.4293 38.4825 30.769 38.4825 31.1881C38.4825 31.6072 38.8222 31.9469 39.2413 31.9469C39.6604 31.9469 40.0001 31.6072 40.0001 31.1881C40.0001 30.769 39.6604 30.4293 39.2413 30.4293ZM32.564 33.4645C32.1449 33.4645 31.8052 33.8041 31.8052 34.2232V35.627H31.4258C31.0067 35.627 30.667 35.9667 30.667 36.3858C30.667 36.8049 31.0067 37.1446 31.4258 37.1446H32.564C32.9831 37.1446 33.3228 36.8049 33.3228 36.3858V34.2232C33.3228 33.8041 32.9831 33.4645 32.564 33.4645ZM32.564 40.1797H31.8052V39.4209C31.8052 39.0018 31.4656 38.6621 31.0464 38.6621H30.2877V37.9033C30.2877 37.4842 29.948 37.1446 29.5289 37.1446C29.1098 37.1446 28.7701 37.4842 28.7701 37.9033V39.4209C28.7701 39.84 29.1098 40.1797 29.5289 40.1797H30.2877V40.9385C30.2877 41.3576 30.6273 41.6973 31.0464 41.6973H32.564C32.9831 41.6973 33.3228 41.3576 33.3228 40.9385C33.3228 40.5194 32.9831 40.1797 32.564 40.1797ZM35.5992 38.6621C35.5992 38.243 35.2595 37.9033 34.8404 37.9033H34.461C34.0419 37.9033 33.7022 38.243 33.7022 38.6621C33.7022 39.0812 34.0419 39.4209 34.461 39.4209H34.8404C35.2595 39.4209 35.5992 39.0812 35.5992 38.6621ZM39.2413 40.1797H38.6343V39.4209C38.6343 39.0018 38.2946 38.6621 37.8755 38.6621C37.4564 38.6621 37.1167 39.0018 37.1167 39.4209V40.1797H35.5992C35.18 40.1797 34.8404 40.5194 34.8404 40.9385C34.8404 41.3576 35.18 41.6973 35.5992 41.6973H39.2413C39.6604 41.6973 40.0001 41.3576 40.0001 40.9385C40.0001 40.5194 39.6604 40.1797 39.2413 40.1797ZM29.5289 34.8682C29.948 34.8682 30.2877 34.5285 30.2877 34.1094V32.7057C30.2877 32.2866 29.948 31.9469 29.5289 31.9469H26.7972V31.2063C26.7972 30.7948 26.4773 30.4444 26.0662 30.4298C25.6345 30.4145 25.2797 30.7598 25.2797 31.1881V31.9469H24.9003C24.4812 31.9469 24.1415 32.2866 24.1415 32.7057C24.1415 33.1248 24.4812 33.4645 24.9003 33.4645H28.7701V34.1094C28.7701 34.5285 29.1098 34.8682 29.5289 34.8682ZM20.5752 26.8251V24.5487C20.5752 23.2935 21.5963 22.2724 22.8516 22.2724H25.1279C26.3832 22.2724 27.4043 23.2935 27.4043 24.5487V26.8251C27.4043 28.0803 26.3832 29.1014 25.1279 29.1014H22.8516C21.5963 29.1014 20.5752 28.0803 20.5752 26.8251ZM22.0928 26.8251C22.0928 27.2435 22.4332 27.5839 22.8516 27.5839H25.1279C25.5463 27.5839 25.8867 27.2435 25.8867 26.8251V24.5487C25.8867 24.1304 25.5463 23.79 25.1279 23.79H22.8516C22.4332 23.79 22.0928 24.1304 22.0928 24.5487V26.8251ZM23.9897 26.4457C24.4088 26.4457 24.7485 26.106 24.7485 25.6869C24.7485 25.2678 24.4088 24.9281 23.9897 24.9281C23.5706 24.9281 23.2309 25.2678 23.2309 25.6869C23.2309 26.106 23.5706 26.4457 23.9897 26.4457ZM40.0001 24.5487V26.8251C40.0001 28.0803 38.979 29.1014 37.7238 29.1014H35.4474C34.1921 29.1014 33.171 28.0803 33.171 26.8251V24.5487C33.171 23.2935 34.1921 22.2724 35.4474 22.2724H37.7238C38.979 22.2724 40.0001 23.2935 40.0001 24.5487ZM38.4825 24.5487C38.4825 24.1304 38.1421 23.79 37.7238 23.79H35.4474C35.029 23.79 34.6886 24.1304 34.6886 24.5487V26.8251C34.6886 27.2435 35.029 27.5839 35.4474 27.5839H37.7238C38.1421 27.5839 38.4825 27.2435 38.4825 26.8251V24.5487ZM36.5856 24.9281C36.1665 24.9281 35.8268 25.2678 35.8268 25.6869C35.8268 26.106 36.1665 26.4457 36.5856 26.4457C37.0047 26.4457 37.3444 26.106 37.3444 25.6869C37.3444 25.2678 37.0047 24.9281 36.5856 24.9281ZM27.4043 37.1446V39.4209C27.4043 40.6762 26.3832 41.6973 25.1279 41.6973H22.8516C21.5963 41.6973 20.5752 40.6762 20.5752 39.4209V37.1446C20.5752 35.8893 21.5963 34.8682 22.8516 34.8682H25.1279C26.3832 34.8682 27.4043 35.8893 27.4043 37.1446ZM25.8867 37.1446C25.8867 36.7262 25.5463 36.3858 25.1279 36.3858H22.8516C22.4332 36.3858 22.0928 36.7262 22.0928 37.1446V39.4209C22.0928 39.8393 22.4332 40.1797 22.8516 40.1797H25.1279C25.5463 40.1797 25.8867 39.8393 25.8867 39.4209V37.1446ZM23.9897 37.5239C23.5706 37.5239 23.2309 37.8636 23.2309 38.2827C23.2309 38.7018 23.5706 39.0415 23.9897 39.0415C24.4088 39.0415 24.7485 38.7018 24.7485 38.2827C24.7485 37.8636 24.4088 37.5239 23.9897 37.5239Z" fill="#77898B" stroke="#77898B" stroke-width="0.5"/>
</svg>
