<svg width="52" height="54" viewBox="0 0 52 54" fill="none" xmlns="http://www.w3.org/2000/svg">
<g clip-path="url(#clip0)" filter="url(#filter0_d)">
<path d="M40.625 16.8025H37.1719V8.75631C37.1719 3.92796 32.6158 0 27.0156 0H24.8828C19.2826 0 14.7266 3.92796 14.7266 8.75631V16.8025H11.375C8.01471 16.8025 5.28125 19.2079 5.28125 22.165V27.5275C5.28125 37.5808 14.5758 45.76 26 45.76C29.3289 45.76 32.6393 45.0481 35.5727 43.7012C36.5673 43.2446 36.9525 42.1647 36.4336 41.2895C35.9146 40.4143 34.6876 40.0749 33.693 40.5319C31.3039 41.6288 28.7156 42.185 26 42.185C16.8157 42.185 9.34375 35.6097 9.34375 27.5275V22.165C9.34375 21.1794 10.255 20.3775 11.375 20.3775H40.625C41.745 20.3775 42.6562 21.1794 42.6562 22.165V27.5275C42.6562 30.1368 41.868 32.6983 40.3766 34.9345C39.8085 35.786 40.1327 36.8811 41.1003 37.3807C42.0679 37.8807 43.3124 37.5955 43.8802 36.7439C45.7372 33.9597 46.7188 30.7726 46.7188 27.5275V22.165C46.7188 19.2079 43.9853 16.8025 40.625 16.8025ZM18.7891 8.75631C18.7891 5.89945 21.5225 3.575 24.8828 3.575H27.0156C30.3759 3.575 33.1094 5.89945 33.1094 8.75631V16.8025H18.7891V8.75631ZM23.9652 34.8562V30.9325C22.9289 30.3439 22.2422 29.3192 22.2422 28.1531C22.2422 26.3269 23.9247 24.8462 26 24.8462C28.0753 24.8462 29.7578 26.3269 29.7578 28.1531C29.7578 29.322 29.0679 30.3487 28.0277 30.9367V34.8562C28.0277 35.8436 27.118 36.6437 25.9964 36.6437C24.8745 36.6437 23.9652 35.8436 23.9652 34.8562Z" fill="#77898B"/>
</g>
<defs>
<filter id="filter0_d" x="-4" y="0" width="60" height="53.76" filterUnits="userSpaceOnUse" color-interpolation-filters="sRGB">
<feFlood flood-opacity="0" result="BackgroundImageFix"/>
<feColorMatrix in="SourceAlpha" type="matrix" values="0 0 0 0 0 0 0 0 0 0 0 0 0 0 0 0 0 0 127 0"/>
<feOffset dy="4"/>
<feGaussianBlur stdDeviation="2"/>
<feColorMatrix type="matrix" values="0 0 0 0 0 0 0 0 0 0 0 0 0 0 0 0 0 0 0.25 0"/>
<feBlend mode="normal" in2="BackgroundImageFix" result="effect1_dropShadow"/>
<feBlend mode="normal" in="SourceGraphic" in2="effect1_dropShadow" result="shape"/>
</filter>
<clipPath id="clip0">
<rect width="52" height="45.76" fill="white"/>
</clipPath>
</defs>
</svg>
