<svg width="70" height="70" viewBox="0 0 70 70" fill="none" xmlns="http://www.w3.org/2000/svg">
<g clip-path="url(#clip0)">
<path d="M5.46967 53.594V50.7392C5.46967 47.2625 8.29862 44.4339 11.7757 44.4339H38.0083C39.516 44.4339 40.7426 45.6606 40.7426 47.1683C40.7426 47.8163 40.5149 48.4117 40.1367 48.8808L39.5818 49.3879C39.5648 49.4033 39.5505 49.4204 39.5339 49.4363C39.0978 49.7306 38.5728 49.9026 38.0083 49.9026H24.3366C22.8264 49.9026 21.6023 51.1268 21.6023 52.6369C21.6023 54.1471 22.8264 55.3713 24.3366 55.3713H38.0083C40.3854 55.3713 42.5287 54.354 44.0282 52.7329L59.8111 38.3111C59.835 38.2891 59.8587 38.2668 59.8819 38.2441C60.4032 37.7323 61.0942 37.4555 61.8229 37.4612C62.5531 37.4681 63.2371 37.759 63.7485 38.2803C64.2603 38.8016 64.5382 39.4909 64.5314 40.2213C64.5247 40.9404 64.2423 41.6147 63.7361 42.1237L49.8224 55.0058C49.8075 55.0197 49.7927 55.0337 49.7781 55.0478C43.4617 61.1633 35.1412 64.5312 26.3495 64.5312H2.73547C1.22529 64.5312 0.00112891 65.7553 0.00112891 67.2655C0.00112891 68.7757 1.22529 69.9998 2.73547 69.9998H26.3493C31.4077 69.9998 36.3499 69.0375 41.0388 67.1396C45.7179 65.2455 49.9305 62.5064 53.5596 58.9984L67.4851 46.1052C67.5045 46.0871 67.5238 46.0688 67.5427 46.0503C69.1065 44.5156 69.979 42.4637 69.9996 40.2728C70.0201 38.0818 69.1863 36.014 67.6517 34.4502C66.117 32.8864 64.0653 32.0136 61.8741 31.993C59.7042 31.9729 57.6489 32.7928 56.0896 34.3038L45.547 43.9372C44.2902 41.0163 41.3846 38.9654 38.0083 38.9654H11.7757C5.28305 38.9654 0.000995397 44.2472 0.000995397 50.7393V53.5941C0.000995397 55.1043 1.22516 56.3284 2.73533 56.3284C4.24551 56.3284 5.46967 55.1041 5.46967 53.594V53.594ZM53.8066 21.7972C60.4554 15.2238 60.4582 4.27131 60.4266 2.78971C60.4536 1.30196 59.2865 0.0626175 57.7953 0.00806744C57.2945 -0.0106628 45.4408 -0.360931 38.4647 6.53602C35.7828 9.18751 34.4334 12.1484 34.4539 15.3365C34.4676 17.4648 34.8906 19.3133 35.6752 20.8433C34.3631 22.5122 33.2709 24.1231 32.4029 25.5185C31.5425 24.1356 30.4621 22.5408 29.1656 20.8879C29.928 19.3635 30.3385 17.5283 30.3519 15.4208C30.3724 12.2202 29.0252 9.24603 26.3477 6.58114C19.3702 -0.363529 7.51044 -0.0106628 7.00978 0.00820416C5.5074 0.0634378 4.3315 1.32123 4.37717 2.82389C4.37744 2.83195 4.37771 2.84002 4.37798 2.84795C4.34859 4.54037 4.42884 15.3726 10.9925 21.9056C13.7069 24.6073 16.6831 25.977 19.8382 25.977C21.9335 25.977 23.7592 25.5702 25.2767 24.8025C28.2869 28.7682 29.8879 32.2474 29.9127 32.3021C30.3561 33.2791 31.3298 33.9066 32.4028 33.9066C33.4757 33.9066 34.4494 33.2791 34.8928 32.3021C34.9171 32.2488 36.5546 28.7112 39.6051 24.7113C41.1073 25.4503 42.9075 25.8403 44.9673 25.8403C48.119 25.8403 51.0931 24.48 53.8066 21.7972V21.7972ZM24.8833 15.3858C24.8817 15.643 24.8709 15.8858 24.8534 16.1182C23.9739 15.2814 23.0387 14.4677 22.0467 13.6988C20.8532 12.7736 19.1355 12.9912 18.2105 14.1849C17.2853 15.3785 17.5029 17.096 18.6966 18.0212C19.6594 18.7674 20.5634 19.5671 21.4084 20.3926C20.8989 20.48 20.3673 20.5084 19.8382 20.5084C18.1577 20.5084 16.5261 19.6975 14.8502 18.0295C11.4972 14.6923 10.2913 9.21868 9.95166 5.5883C13.2955 5.8873 18.9396 6.92362 22.4897 10.4571C24.6497 12.6069 24.8902 14.2996 24.8833 15.3858V15.3858ZM54.839 5.5749C54.5356 8.87552 53.4922 14.4179 49.9617 17.9083C48.2852 19.566 46.6515 20.3716 44.9673 20.3716C44.4429 20.3716 43.9641 20.337 43.5274 20.2677C44.3355 19.4853 45.1963 18.7284 46.109 18.0212C47.3026 17.096 47.5202 15.3785 46.5952 14.1849C45.6702 12.9912 43.9526 12.7736 42.7589 13.6988C41.7691 14.466 40.8357 15.278 39.9577 16.113C39.9367 15.8548 39.9242 15.5853 39.9225 15.3014C39.9156 14.2279 40.1556 12.5546 42.3094 10.4251C45.6694 7.10313 51.1847 5.91 54.839 5.5749V5.5749Z" fill="#77898B"/>
</g>
<defs>
<clipPath id="clip0">
<rect width="70" height="70" fill="white" transform="matrix(-1 0 0 1 70 0)"/>
</clipPath>
</defs>
</svg>
