<svg width="100" height="100" viewBox="0 0 100 100" fill="none" xmlns="http://www.w3.org/2000/svg">
<path d="M67.3828 17.3828C60.1025 17.3828 53.3721 19.7811 47.9387 23.8281H19.5312C17.3738 23.8281 15.625 25.577 15.625 27.7344C15.625 29.8918 17.3738 31.6406 19.5312 31.6406H40.4377C37.5557 35.857 35.6373 40.7811 35.0004 46.0938H11.7188C9.56133 46.0938 7.8125 47.8426 7.8125 50C7.8125 52.1574 9.56133 53.9062 11.7188 53.9062H35.0004C35.6373 59.2189 37.5557 64.143 40.4377 68.3594H3.90625C1.74883 68.3594 0 70.1082 0 72.2656C0 74.423 1.74883 76.1719 3.90625 76.1719H47.4609C47.6104 76.1719 47.7572 76.1617 47.9023 76.1453C53.342 80.2086 60.0863 82.6172 67.3828 82.6172C72.1023 82.6172 76.6568 81.6299 80.9197 79.6832C82.8822 78.7869 83.7465 76.4695 82.8502 74.5072C81.9537 72.5449 79.6363 71.6805 77.6742 72.5768C74.4371 74.0551 70.9746 74.8047 67.3828 74.8047C53.7055 74.8047 42.5781 63.6773 42.5781 50C42.5781 36.3227 53.7055 25.1953 67.3828 25.1953C81.0602 25.1953 92.1875 36.3227 92.1875 50C92.1875 53.5611 91.4502 56.9969 89.9957 60.2115C89.1063 62.1771 89.9789 64.4914 91.9445 65.3807C93.9102 66.2701 96.2244 65.3975 97.1137 63.4318C99.0289 59.1984 100 54.6793 100 50C100 32.0148 85.368 17.3828 67.3828 17.3828Z" fill="#9C94AC"/>
<line x1="63.75" y1="32.5" x2="63.75" y2="52.5" stroke="#9C94AC" stroke-width="5" stroke-linecap="round"/>
<line x1="67.4043" y1="52.5" x2="78.8455" y2="52.5" stroke="#9C94AC" stroke-width="5" stroke-linecap="round"/>
</svg>
