<svg width="31" height="25" viewBox="0 0 31 25" fill="none" xmlns="http://www.w3.org/2000/svg">
<path d="M30.5 3.38563C29.3844 3.875 28.1956 4.19937 26.9562 4.35687C28.2312 3.59562 29.2044 2.39937 29.6619 0.9575C28.4731 1.66625 27.1606 2.16688 25.7619 2.44625C24.6331 1.24438 23.0244 0.5 21.2694 0.5C17.8644 0.5 15.1231 3.26375 15.1231 6.65188C15.1231 7.13938 15.1644 7.60812 15.2656 8.05437C10.1525 7.805 5.62813 5.35438 2.58875 1.62125C2.05812 2.54188 1.74688 3.59562 1.74688 4.73C1.74688 6.86 2.84375 8.74813 4.47875 9.84125C3.49062 9.8225 2.52125 9.53563 1.7 9.08375C1.7 9.1025 1.7 9.12687 1.7 9.15125C1.7 12.14 3.83187 14.6225 6.6275 15.1944C6.12687 15.3313 5.58125 15.3969 5.015 15.3969C4.62125 15.3969 4.22375 15.3744 3.85062 15.2919C4.6475 17.7275 6.90875 19.5181 9.5975 19.5763C7.505 21.2131 4.84812 22.1994 1.97188 22.1994C1.4675 22.1994 0.98375 22.1769 0.5 22.115C3.22438 23.8719 6.45312 24.875 9.935 24.875C21.2525 24.875 27.44 15.5 27.44 7.37375C27.44 7.10187 27.4306 6.83938 27.4175 6.57875C28.6381 5.7125 29.6637 4.63063 30.5 3.38563Z" fill="#FBFBFB" fill-opacity="0.7"/>
</svg>
