<svg width="296" height="241" viewBox="0 0 296 241" fill="none" xmlns="http://www.w3.org/2000/svg">
<path d="M296 28.4715C284.992 33.3 273.263 36.5005 261.035 38.0545C273.615 30.5435 283.217 18.7405 287.731 4.514C276.002 11.507 263.051 16.4465 249.25 19.203C238.113 7.3445 222.24 0 204.924 0C171.328 0 144.281 27.269 144.281 60.6985C144.281 65.5085 144.688 70.1335 145.688 74.5365C95.238 72.076 50.5975 47.8965 20.609 11.063C15.3735 20.1465 12.3025 30.5435 12.3025 41.736C12.3025 62.752 23.125 81.3815 39.257 92.167C29.5075 91.982 19.943 89.1515 11.84 84.693C11.84 84.878 11.84 85.1185 11.84 85.359C11.84 114.848 32.8745 139.342 60.458 144.984C55.5185 146.335 50.135 146.982 44.548 146.982C40.663 146.982 36.741 146.76 33.0595 145.946C40.922 169.978 63.233 187.645 89.762 188.219C69.116 204.369 42.9015 214.1 14.5225 214.1C9.546 214.1 4.773 213.878 0 213.268C26.8805 230.602 58.7375 240.5 93.092 240.5C204.758 240.5 265.808 148 265.808 67.821C265.808 65.1385 265.715 62.5485 265.586 59.977C277.629 51.43 287.749 40.7555 296 28.4715Z" fill="#585A60" fill-opacity="0.4"/>
</svg>
