<svg width="62" height="60" viewBox="0 0 62 60" fill="none" xmlns="http://www.w3.org/2000/svg">
<g filter="url(#filter0_d)">
<ellipse cx="31" cy="25.65" rx="27" ry="25.65" fill="#77898B"/>
</g>
<path d="M45.8591 45C45.2189 45 44.6798 44.5589 44.545 43.9482C44.4102 43.3036 44.2417 42.659 44.0059 42.0484C43.5678 40.7931 42.894 39.6056 42.0853 38.52L42.0516 38.4521C41.8494 38.2146 41.681 37.9771 41.4788 37.7397L41.3777 37.604C40.8049 36.9593 40.1647 36.3826 39.4571 35.8398L39.3898 35.7719C39.3224 35.7041 39.2213 35.6701 39.1539 35.6023C38.9854 35.4666 38.7833 35.3648 38.6148 35.2291C38.4463 35.1273 38.3115 35.0255 38.1431 34.9577C37.9746 34.8559 37.8061 34.7541 37.6377 34.6523C37.4355 34.5505 37.2333 34.4488 37.0312 34.347L36.8627 34.3131C36.7616 34.2791 36.6605 34.2113 36.5594 34.1774C36.2225 34.0416 35.8519 33.9059 35.5149 33.7702C35.4138 33.7363 35.3464 33.7024 35.2454 33.7024L35.1443 33.6685C34.8747 33.6006 34.6052 33.5327 34.3356 33.4649C34.2008 33.431 34.0661 33.397 33.8976 33.3631C33.628 33.3292 33.3585 33.2613 33.0552 33.2274H32.9541C32.8531 33.2274 32.752 33.1935 32.6846 33.1935C32.2466 33.1596 31.8422 33.1256 31.4379 33.1256C31.0673 33.1256 30.6629 33.1596 30.2249 33.1935C30.1238 33.1935 29.989 33.2274 29.888 33.2274C29.5847 33.2613 29.2815 33.2953 28.9782 33.3631H28.9108C28.8434 33.3631 28.7761 33.397 28.7087 33.397C28.338 33.4649 27.9674 33.5667 27.5968 33.6685C27.4957 33.7024 27.4283 33.7363 27.3272 33.7702L27.125 33.8381C26.8892 33.9059 26.687 34.0077 26.4511 34.0756C26.3164 34.1434 26.1816 34.1774 26.0805 34.2452C25.811 34.347 25.5751 34.4827 25.3055 34.6184C25.1034 34.7202 24.9012 34.822 24.7327 34.9577C24.5643 35.0595 24.3958 35.1612 24.2273 35.263C24.0588 35.3648 23.8904 35.5005 23.7219 35.6023C23.6208 35.6701 23.5197 35.7719 23.4187 35.8398C22.7785 36.3487 22.172 36.8915 21.6666 37.4343L21.5318 37.604C20.959 38.2486 20.4199 38.961 19.9818 39.7074L19.9481 39.7413C19.8134 39.9788 19.6449 40.2502 19.5101 40.5216C18.971 41.5734 18.6004 42.693 18.3645 43.8125C18.2297 44.4571 17.6906 44.9321 17.0504 44.9321C16.2081 44.9321 15.5342 44.1518 15.7364 43.3036C16.4776 39.3342 18.8362 35.7041 22.3067 33.2613L22.3404 33.2274C22.8122 32.8881 23.2502 32.6167 23.6208 32.4132L25.4066 31.3954L24.0252 29.9026C22.2057 27.9688 21.2285 25.4921 21.2285 22.8458C21.2285 17.214 25.7773 12.6339 31.3705 12.6H31.4716C37.1996 12.6339 41.8494 17.4515 41.6136 23.2869C41.5125 25.8314 40.4343 28.2063 38.6822 30.0722L37.4018 31.4293L39.1876 32.4471C39.5582 32.6507 39.9626 32.9221 40.4343 33.2274L40.468 33.2613C43.9722 35.6701 46.3308 39.3342 47.1731 43.4054C47.3416 44.2197 46.7014 45 45.8591 45ZM31.4379 15.3141C30.6629 15.3141 29.9217 15.4159 29.2141 15.6534C28.2706 15.9587 27.4283 16.3998 26.687 17.0444C26.5185 17.214 26.3164 17.3497 26.1479 17.5193C25.811 17.8586 25.5077 18.2318 25.2382 18.6389C24.3958 19.8942 23.9578 21.3531 23.9578 22.8458C23.9578 24.3386 24.3958 25.7975 25.2382 27.0527C25.5077 27.4599 25.811 27.8331 26.1479 28.1723C26.3164 28.342 26.4848 28.5116 26.687 28.6473C27.4283 29.258 28.3043 29.733 29.2141 30.0383C29.9217 30.2758 30.6966 30.3776 31.4379 30.3776C32.9205 30.3776 34.3693 29.9365 35.616 29.0884C36.0203 28.8169 36.391 28.5116 36.7279 28.1723C38.1431 26.7474 38.918 24.8475 38.918 22.8458C38.918 20.8442 38.1431 18.9443 36.7279 17.5193C36.391 17.1801 36.0203 16.8747 35.616 16.6033C34.3693 15.7891 32.9205 15.3141 31.4379 15.3141Z" fill="white"/>
<defs>
<filter id="filter0_d" x="0" y="0" width="62" height="59.3" filterUnits="userSpaceOnUse" color-interpolation-filters="sRGB">
<feFlood flood-opacity="0" result="BackgroundImageFix"/>
<feColorMatrix in="SourceAlpha" type="matrix" values="0 0 0 0 0 0 0 0 0 0 0 0 0 0 0 0 0 0 127 0"/>
<feOffset dy="4"/>
<feGaussianBlur stdDeviation="2"/>
<feColorMatrix type="matrix" values="0 0 0 0 0 0 0 0 0 0 0 0 0 0 0 0 0 0 0.25 0"/>
<feBlend mode="normal" in2="BackgroundImageFix" result="effect1_dropShadow"/>
<feBlend mode="normal" in="SourceGraphic" in2="effect1_dropShadow" result="shape"/>
</filter>
</defs>
</svg>
