<svg width="40" height="41" viewBox="0 0 40 41" fill="none" xmlns="http://www.w3.org/2000/svg">
<path d="M19.9373 0C14.1633 0 9.35156 4.81169 9.35156 10.7232C9.35156 16.6347 14.1633 21.3089 19.9373 21.3089C25.8488 21.3089 30.6605 16.6347 30.6605 10.7232C30.6605 4.81169 25.8488 0 19.9373 0Z" fill="#1E1E1E"/>
<path d="M3.44026 40.2807H36.5722C38.9093 40.2807 40.6965 37.8061 39.7342 35.469C38.4969 32.0321 36.0223 29.1451 32.9978 27.0829C30.1108 25.0208 26.6739 23.921 22.8245 23.921H17.1879C13.3386 23.921 9.90167 25.0208 6.87718 27.0829C3.99017 29.1451 1.51559 32.0321 0.278293 35.469C-0.684045 37.8061 0.965678 40.2807 3.44026 40.2807Z" fill="#1E1E1E"/>
</svg>
