<svg width="296" height="296" viewBox="0 0 296 296" fill="none" xmlns="http://www.w3.org/2000/svg">
<path d="M295.25 253.636C293.948 247.385 287.827 243.372 281.573 244.674C275.321 245.975 271.308 252.099 272.61 258.35C273.36 261.951 272.467 265.642 270.161 268.478C268.826 270.121 265.848 272.875 260.912 272.875H35.088C30.1519 272.875 27.174 270.12 25.8385 268.478C23.5324 265.642 22.6398 261.951 23.3896 258.35C35.3892 200.714 86.2267 158.611 144.935 157.191C145.952 157.231 146.973 157.25 148 157.25C149.03 157.25 150.056 157.23 151.077 157.191C192.431 158.183 230.655 179.129 253.802 213.65C257.358 218.955 264.54 220.371 269.845 216.815C275.149 213.259 276.566 206.076 273.009 200.773C254.037 172.477 226.487 151.901 195.076 141.563C214.217 127.208 226.625 104.338 226.625 78.6251C226.625 35.2715 191.354 0 148 0C104.646 0 69.3749 35.2715 69.3749 78.6251C69.3749 104.354 81.7976 127.236 100.96 141.589C83.4031 147.369 66.9294 156.363 52.5109 168.223C26.0721 189.97 7.68943 220.304 0.750185 253.636C-1.42472 264.081 1.18089 274.809 7.89755 283.068C14.5813 291.287 24.4921 296 35.088 296H260.911C271.508 296 281.419 291.287 288.102 283.068C294.82 274.809 297.425 264.081 295.25 253.636ZM92.4999 78.6251C92.4999 48.022 117.397 23.125 148 23.125C178.603 23.125 203.5 48.022 203.5 78.6251C203.5 108.286 180.112 132.587 150.809 134.055C149.874 134.037 148.938 134.029 148 134.029C147.067 134.029 146.134 134.038 145.202 134.055C115.894 132.593 92.4999 108.29 92.4999 78.6251Z" fill="#9C94AC"/>
</svg>
